<svg width="36" height="42" viewBox="0 0 36 42" fill="none" xmlns="http://www.w3.org/2000/svg" xmlns:xlink="http://www.w3.org/1999/xlink">
<path d="M11.5,2C11.5,1.172 10.828,0.5 10,0.5C9.172,0.5 8.5,1.172 8.5,2L8.5,5L8,5C3.582,5 0,8.582 0,13L0,14.5L36,14.5L36,13C36,8.582 32.418,5 28,5L27.5,5L27.5,2C27.5,1.172 26.828,0.5 26,0.5C25.172,0.5 24.5,1.172 24.5,2L24.5,5L11.5,5L11.5,2ZM36,17.5L0,17.5L0,34C0,38.418 3.582,42 8,42L28,42C32.418,42 36,38.418 36,34L36,17.5ZM25.129,24.988C25.674,24.364 25.611,23.417 24.988,22.871C24.364,22.326 23.417,22.389 22.871,23.012L17.131,29.572C16.955,29.773 16.652,29.8 16.443,29.633L12.937,26.829C12.29,26.311 11.346,26.416 10.829,27.063C10.311,27.71 10.416,28.654 11.063,29.171L14.569,31.976C16.031,33.146 18.156,32.957 19.389,31.548L25.129,24.988Z" clip-rule="evenodd" fill-rule="evenodd" fill="#7152F3"/>
</svg>
