<svg width="48" height="48" viewBox="0 0 48 48" fill="none" xmlns="http://www.w3.org/2000/svg" xmlns:xlink="http://www.w3.org/1999/xlink">
<path d="M32.5,35C32.5,36.059 31.603,37.421 29.229,38.608C26.944,39.75 23.684,40.5 20,40.5L20,43.5C24.048,43.5 27.788,42.683 30.57,41.291C33.263,39.945 35.5,37.807 35.5,35L32.5,35ZM20,40.5C16.316,40.5 13.056,39.75 10.771,38.608C8.397,37.421 7.5,36.059 7.5,35L4.5,35C4.5,37.807 6.737,39.945 9.43,41.291C12.212,42.683 15.952,43.5 20,43.5L20,40.5ZM7.5,35C7.5,33.941 8.397,32.579 10.771,31.392C13.056,30.25 16.316,29.5 20,29.5L20,26.5C15.952,26.5 12.212,27.317 9.43,28.709C6.737,30.055 4.5,32.193 4.5,35L7.5,35ZM20,29.5C23.684,29.5 26.944,30.25 29.229,31.392C31.603,32.579 32.5,33.941 32.5,35L35.5,35C35.5,32.193 33.263,30.055 30.57,28.709C27.788,27.317 24.048,26.5 20,26.5L20,29.5Z" fill="#16151C"/>
<circle cx="20" cy="14" r="8" stroke="#16151C" stroke-width="1.5" stroke-miterlimit="3.999327" stroke-linejoin="round"/>
<path d="M30.09,20.499C29.446,21.497 28.658,22.393 27.755,23.158C28.464,23.38 29.218,23.5 30,23.5C34.142,23.5 37.5,20.142 37.5,16C37.5,12.088 34.506,8.876 30.684,8.531C31.217,9.569 31.602,10.694 31.814,11.88C33.396,12.578 34.5,14.16 34.5,16C34.5,18.455 32.534,20.451 30.09,20.499Z" clip-rule="evenodd" fill-rule="evenodd" fill="#16151C"/>
<path d="M37.999,35.113C37.979,36.341 37.63,37.521 37.002,38.622C37.739,38.419 38.429,38.184 39.062,37.92C40.257,37.422 41.321,36.792 42.11,36.015C42.904,35.232 43.5,34.213 43.5,33C43.5,31.787 42.904,30.767 42.11,29.985C41.321,29.208 40.257,28.577 39.062,28.08C37.017,27.228 34.381,26.679 31.499,26.537C33.503,27.555 35.14,28.834 36.27,30.289C36.866,30.455 37.414,30.643 37.909,30.849C38.886,31.256 39.579,31.703 40.005,32.122C40.425,32.536 40.5,32.832 40.5,33C40.5,33.168 40.425,33.463 40.005,33.878C39.592,34.284 38.929,34.716 37.999,35.113Z" clip-rule="evenodd" fill-rule="evenodd" fill="#16151C"/>
</svg>
