<svg width="48" height="48" viewBox="0 0 48 48" fill="none" xmlns="http://www.w3.org/2000/svg" xmlns:xlink="http://www.w3.org/1999/xlink">
<path d="M8.911,27.76L7.768,26.789L7.768,26.789L8.911,27.76ZM10.67,23.677L12.16,23.846L12.16,23.846L10.67,23.677ZM37.33,23.677L38.821,23.508L38.821,23.508L37.33,23.677ZM39.089,27.76L40.232,26.789L40.232,26.789L39.089,27.76ZM36.641,17.588L35.15,17.757L35.15,17.757L36.641,17.588ZM11.359,17.588L9.869,17.419L11.359,17.588ZM36.34,32.5L11.66,32.5L11.66,35.5L36.34,35.5L36.34,32.5ZM35.15,17.757L35.84,23.846L38.821,23.508L38.131,17.419L35.15,17.757ZM12.16,23.846L12.85,17.757L9.869,17.419L9.179,23.508L12.16,23.846ZM10.054,28.731C11.223,27.355 11.956,25.651 12.16,23.846L9.179,23.508C9.041,24.729 8.546,25.873 7.768,26.789L10.054,28.731ZM35.84,23.846C36.045,25.651 36.777,27.355 37.946,28.731L40.232,26.789C39.454,25.873 38.959,24.729 38.821,23.508L35.84,23.846ZM11.66,32.5C9.887,32.5 8.759,30.256 10.054,28.731L7.768,26.789C4.93,30.129 7.157,35.5 11.66,35.5L11.66,32.5ZM36.34,35.5C40.843,35.5 43.07,30.129 40.232,26.789L37.946,28.731C39.241,30.256 38.113,32.5 36.34,32.5L36.34,35.5ZM38.131,17.419C37.301,10.089 31.256,4.5 24,4.5L24,7.5C29.66,7.5 34.484,11.874 35.15,17.757L38.131,17.419ZM12.85,17.757C13.516,11.874 18.34,7.5 24,7.5L24,4.5C16.744,4.5 10.699,10.089 9.869,17.419L12.85,17.757Z" fill="#16151C"/>
<path d="M31.405,38.526C31.695,37.751 31.302,36.886 30.526,36.595C29.751,36.305 28.886,36.698 28.595,37.474L31.405,38.526ZM19.405,37.474C19.114,36.698 18.249,36.305 17.474,36.595C16.698,36.886 16.305,37.751 16.595,38.526L19.405,37.474ZM28.595,37.474C27.95,39.196 26.169,40.5 24,40.5L24,43.5C27.371,43.5 30.303,41.465 31.405,38.526L28.595,37.474ZM24,40.5C21.831,40.5 20.05,39.196 19.405,37.474L16.595,38.526C17.697,41.465 20.629,43.5 24,43.5L24,40.5Z" fill="#16151C"/>
</svg>
