<svg width="48" height="48" viewBox="0 0 48 48" fill="none" xmlns="http://www.w3.org/2000/svg" xmlns:xlink="http://www.w3.org/1999/xlink">
<path d="M34,27.5C34.828,27.5 35.5,26.828 35.5,26C35.5,25.172 34.828,24.5 34,24.5L34,27.5ZM22,24.5C21.172,24.5 20.5,25.172 20.5,26C20.5,26.828 21.172,27.5 22,27.5L22,24.5ZM34,19.5C34.828,19.5 35.5,18.828 35.5,18C35.5,17.172 34.828,16.5 34,16.5L34,19.5ZM22,16.5C21.172,16.5 20.5,17.172 20.5,18C20.5,18.828 21.172,19.5 22,19.5L22,16.5ZM34,35.5C34.828,35.5 35.5,34.828 35.5,34C35.5,33.172 34.828,32.5 34,32.5L34,35.5ZM22,32.5C21.172,32.5 20.5,33.172 20.5,34C20.5,34.828 21.172,35.5 22,35.5L22,32.5ZM33.5,4C33.5,3.172 32.828,2.5 32,2.5C31.172,2.5 30.5,3.172 30.5,4L33.5,4ZM30.5,10C30.5,10.828 31.172,11.5 32,11.5C32.828,11.5 33.5,10.828 33.5,10L30.5,10ZM17.5,4C17.5,3.172 16.828,2.5 16,2.5C15.172,2.5 14.5,3.172 14.5,4L17.5,4ZM14.5,10C14.5,10.828 15.172,11.5 16,11.5C16.828,11.5 17.5,10.828 17.5,10L14.5,10ZM14,8.5L34,8.5L34,5.5L14,5.5L14,8.5ZM40.5,15L40.5,36L43.5,36L43.5,15L40.5,15ZM34,42.5L14,42.5L14,45.5L34,45.5L34,42.5ZM7.5,36L7.5,15L4.5,15L4.5,36L7.5,36ZM14,42.5C10.41,42.5 7.5,39.59 7.5,36L4.5,36C4.5,41.247 8.753,45.5 14,45.5L14,42.5ZM40.5,36C40.5,39.59 37.59,42.5 34,42.5L34,45.5C39.247,45.5 43.5,41.247 43.5,36L40.5,36ZM34,8.5C37.59,8.5 40.5,11.41 40.5,15L43.5,15C43.5,9.753 39.247,5.5 34,5.5L34,8.5ZM14,5.5C8.753,5.5 4.5,9.753 4.5,15L7.5,15C7.5,11.41 10.41,8.5 14,8.5L14,5.5ZM34,24.5L22,24.5L22,27.5L34,27.5L34,24.5ZM34,16.5L22,16.5L22,19.5L34,19.5L34,16.5ZM34,32.5L22,32.5L22,35.5L34,35.5L34,32.5ZM30.5,4L30.5,10L33.5,10L33.5,4L30.5,4ZM14.5,4L14.5,10L17.5,10L17.5,4L14.5,4Z" fill="#16151C"/>
<path d="M17,18C17,19.105 16.105,20 15,20C13.895,20 13,19.105 13,18C13,16.895 13.895,16 15,16C16.105,16 17,16.895 17,18Z" fill="#16151C"/>
<path d="M17,26C17,27.105 16.105,28 15,28C13.895,28 13,27.105 13,26C13,24.895 13.895,24 15,24C16.105,24 17,24.895 17,26Z" fill="#16151C"/>
<path d="M17,34C17,35.105 16.105,36 15,36C13.895,36 13,35.105 13,34C13,32.895 13.895,32 15,32C16.105,32 17,32.895 17,34Z" fill="#16151C"/>
</svg>
