<svg width="48" height="48" viewBox="0 0 48 48" fill="none" xmlns="http://www.w3.org/2000/svg" xmlns:xlink="http://www.w3.org/1999/xlink">
<circle cx="24" cy="24" r="20" stroke="#16151C" stroke-width="1.5" stroke-miterlimit="3.999327"/>
<path d="M29.5,20C29.5,19.172 28.828,18.5 28,18.5C27.172,18.5 26.5,19.172 26.5,20L29.5,20ZM24,17.5C24.828,17.5 25.5,16.828 25.5,16C25.5,15.172 24.828,14.5 24,14.5L24,17.5ZM26.5,20C26.5,21.381 25.381,22.5 24,22.5L24,25.5C27.038,25.5 29.5,23.038 29.5,20L26.5,20ZM24,22.5C22.619,22.5 21.5,21.381 21.5,20L18.5,20C18.5,23.038 20.962,25.5 24,25.5L24,22.5ZM21.5,20C21.5,18.619 22.619,17.5 24,17.5L24,14.5C20.962,14.5 18.5,16.962 18.5,20L21.5,20Z" fill="#16151C"/>
<path d="M24,30.5C23.172,30.5 22.5,31.172 22.5,32C22.5,32.828 23.172,33.5 24,33.5L24,30.5ZM18.5,28C18.5,28.828 19.172,29.5 20,29.5C20.828,29.5 21.5,28.828 21.5,28L18.5,28ZM26.5,28C26.5,29.381 25.381,30.5 24,30.5L24,33.5C27.038,33.5 29.5,31.038 29.5,28L26.5,28ZM21.5,28C21.5,26.619 22.619,25.5 24,25.5L24,22.5C20.962,22.5 18.5,24.962 18.5,28L21.5,28ZM24,25.5C25.381,25.5 26.5,26.619 26.5,28L29.5,28C29.5,24.962 27.038,22.5 24,22.5L24,25.5Z" fill="#16151C"/>
<line x1="22.5" y1="13" x2="22.5" y2="16" stroke="#16151C" stroke-width="1.5" stroke-miterlimit="3.999327" stroke-linecap="round" stroke-linejoin="round"/>
<line x1="22.5" y1="32" x2="22.5" y2="35" stroke="#16151C" stroke-width="1.5" stroke-miterlimit="3.999327" stroke-linecap="round" stroke-linejoin="round"/>
</svg>
