<svg width="8" height="12" viewBox="0 0 8 12" fill="none" xmlns="http://www.w3.org/2000/svg" xmlns:xlink="http://www.w3.org/1999/xlink">
<path d="M1.029,8.304C0.589,9.225 0.013,10.068 -0.674,10.807C0.117,11.249 1.029,11.5 2,11.5C5.038,11.5 7.5,9.038 7.5,6C7.5,2.962 5.038,0.5 2,0.5C1.792,0.5 1.586,0.512 1.383,0.534C1.727,1.465 1.937,2.462 1.988,3.5C1.992,3.5 1.996,3.5 2,3.5C3.381,3.5 4.5,4.619 4.5,6C4.5,7.381 3.381,8.5 2,8.5C1.656,8.5 1.328,8.43 1.029,8.304Z" clip-rule="evenodd" fill-rule="evenodd" fill="#16151C"/>
</svg>
