<svg width="36" height="36" viewBox="0 0 36 36" fill="none" xmlns="http://www.w3.org/2000/svg" xmlns:xlink="http://www.w3.org/1999/xlink">
<path d="M16.091,0L19.909,0C22.018,0 23.727,1.612 23.727,3.6C23.727,5.875 26.162,7.322 28.16,6.234L28.363,6.123C30.189,5.129 32.524,5.719 33.579,7.441L35.488,10.559C36.542,12.281 35.916,14.482 34.09,15.477C32.091,16.565 32.091,19.435 34.09,20.523C35.916,21.518 36.542,23.719 35.488,25.441L33.579,28.559C32.524,30.281 30.189,30.871 28.363,29.877L28.16,29.766C26.162,28.678 23.727,30.125 23.727,32.4C23.727,34.388 22.018,36 19.909,36L16.091,36C13.982,36 12.273,34.388 12.273,32.4C12.273,30.125 9.838,28.678 7.84,29.766L7.637,29.877C5.811,30.871 3.476,30.281 2.421,28.559L0.512,25.441C-0.542,23.719 0.084,21.518 1.91,20.523C3.909,19.435 3.909,16.565 1.91,15.477C0.084,14.482 -0.542,12.281 0.512,10.559L2.421,7.441C3.476,5.719 5.811,5.129 7.637,6.123L7.84,6.234C9.838,7.322 12.273,5.875 12.273,3.6C12.273,1.612 13.982,0 16.091,0ZM18,24C21.314,24 24,21.314 24,18C24,14.686 21.314,12 18,12C14.686,12 12,14.686 12,18C12,21.314 14.686,24 18,24Z" clip-rule="evenodd" fill-rule="evenodd" fill="#7152F3"/>
</svg>
