<svg width="20" height="10" viewBox="0 0 20 10" fill="none" xmlns="http://www.w3.org/2000/svg" xmlns:xlink="http://www.w3.org/1999/xlink">
<path d="M2.604,-0.505C1.957,-1.022 1.013,-0.917 0.495,-0.27C-0.022,0.376 0.083,1.32 0.729,1.838L2.604,-0.505ZM10,7.333L9.063,8.505C9.611,8.943 10.389,8.943 10.937,8.505L10,7.333ZM19.27,1.838C19.917,1.32 20.022,0.376 19.504,-0.27C18.987,-0.917 18.043,-1.022 17.396,-0.505L19.27,1.838ZM0.729,1.838L9.063,8.505L10.937,6.162L2.604,-0.505L0.729,1.838ZM10.937,8.505L19.27,1.838L17.396,-0.505L9.063,6.162L10.937,8.505Z" fill="#16151C"/>
</svg>
