<svg width="40" height="44" viewBox="0 0 40 44" fill="none" xmlns="http://www.w3.org/2000/svg" xmlns:xlink="http://www.w3.org/1999/xlink">
<path d="M12,16.5C11.172,16.5 10.5,17.172 10.5,18C10.5,18.828 11.172,19.5 12,19.5L12,16.5ZM28,19.5C28.828,19.5 29.5,18.828 29.5,18C29.5,17.172 28.828,16.5 28,16.5L28,19.5ZM12,24.5C11.172,24.5 10.5,25.172 10.5,26C10.5,26.828 11.172,27.5 12,27.5L12,24.5ZM28,27.5C28.828,27.5 29.5,26.828 29.5,26C29.5,25.172 28.828,24.5 28,24.5L28,27.5ZM12,32.5C11.172,32.5 10.5,33.172 10.5,34C10.5,34.828 11.172,35.5 12,35.5L12,32.5ZM20,35.5C20.828,35.5 21.5,34.828 21.5,34C21.5,33.172 20.828,32.5 20,32.5L20,35.5ZM12,19.5L28,19.5L28,16.5L12,16.5L12,19.5ZM12,27.5L28,27.5L28,24.5L12,24.5L12,27.5ZM12,35.5L20,35.5L20,32.5L12,32.5L12,35.5ZM16,3.5L24,3.5L24,0.5L16,0.5L16,3.5ZM24,8.5L16,8.5L16,11.5L24,11.5L24,8.5ZM16,8.5C14.619,8.5 13.5,7.381 13.5,6L10.5,6C10.5,9.038 12.962,11.5 16,11.5L16,8.5ZM26.5,6C26.5,7.381 25.381,8.5 24,8.5L24,11.5C27.038,11.5 29.5,9.038 29.5,6L26.5,6ZM24,3.5C25.381,3.5 26.5,4.619 26.5,6L29.5,6C29.5,2.962 27.038,0.5 24,0.5L24,3.5ZM16,0.5C12.962,0.5 10.5,2.962 10.5,6L13.5,6C13.5,4.619 14.619,3.5 16,3.5L16,0.5ZM36.5,14L36.5,34L39.5,34L39.5,14L36.5,14ZM30,40.5L10,40.5L10,43.5L30,43.5L30,40.5ZM3.5,34L3.5,14L0.5,14L0.5,34L3.5,34ZM30,4.5L28,4.5L28,7.5L30,7.5L30,4.5ZM10,7.5L12,7.5L12,4.5L10,4.5L10,7.5ZM3.5,14C3.5,10.41 6.41,7.5 10,7.5L10,4.5C4.753,4.5 0.5,8.753 0.5,14L3.5,14ZM10,40.5C6.41,40.5 3.5,37.59 3.5,34L0.5,34C0.5,39.247 4.753,43.5 10,43.5L10,40.5ZM36.5,34C36.5,37.59 33.59,40.5 30,40.5L30,43.5C35.247,43.5 39.5,39.247 39.5,34L36.5,34ZM39.5,14C39.5,8.753 35.247,4.5 30,4.5L30,7.5C33.59,7.5 36.5,10.41 36.5,14L39.5,14Z" fill="#16151C"/>
</svg>
