<svg width="36" height="26" viewBox="0 0 36 26" fill="none" xmlns="http://www.w3.org/2000/svg" xmlns:xlink="http://www.w3.org/1999/xlink">
<path d="M34.638,15.26C34.638,17.836 34.123,20.053 33.147,21.671C31.894,23.75 29.947,24.85 27.516,24.85C22.876,24.85 19.757,19.029 16.456,12.867C14.057,8.391 11.08,2.822 8.633,2.822C7.453,2.822 6.008,4.255 4.86,6.562C3.548,9.275 2.851,12.246 2.82,15.26C2.82,17.141 3.162,18.745 3.784,19.776C4.36,20.733 5.151,21.178 6.271,21.178C8.374,21.178 10.956,16.742 11.805,15.29C12.051,14.87 12.453,14.564 12.924,14.44C13.395,14.315 13.896,14.384 14.317,14.629C14.737,14.874 15.043,15.276 15.167,15.747C15.291,16.218 15.223,16.719 14.978,17.14C13.615,19.477 12.45,21.117 11.307,22.307C9.665,24.018 8.021,24.85 6.271,24.85C3.84,24.85 1.893,23.75 0.64,21.671C-0.336,20.053 -0.852,17.836 -0.852,15.26C-0.852,8.534 2.756,-0.85 8.633,-0.85C13.273,-0.85 16.392,4.971 19.693,11.133C22.094,15.609 25.073,21.178 27.516,21.178C28.636,21.178 29.427,20.733 30.003,19.776C30.624,18.745 30.967,17.141 30.967,15.26C30.936,12.246 30.24,9.276 28.928,6.562C27.781,4.255 26.335,2.822 25.154,2.822C24.279,2.822 23.225,3.586 22.02,5.09C21.715,5.47 21.272,5.714 20.788,5.768C20.304,5.821 19.819,5.68 19.439,5.376C19.059,5.072 18.815,4.629 18.761,4.145C18.708,3.661 18.849,3.176 19.153,2.796C21.118,0.343 23.081,-0.85 25.154,-0.85C27.854,-0.85 30.355,1.202 32.214,4.926C33.773,8.15 34.601,11.679 34.638,15.26Z" fill="#FFFFFF"/>
</svg>
