<svg width="28" height="14" viewBox="0 0 28 14" fill="none" xmlns="http://www.w3.org/2000/svg" xmlns:xlink="http://www.w3.org/1999/xlink">
<path d="M24.5,7C24.5,7.168 24.425,7.463 24.004,7.878C23.579,8.297 22.886,8.744 21.908,9.151C19.96,9.963 17.165,10.5 14,10.5L14,13.5C17.462,13.5 20.667,12.918 23.062,11.92C24.256,11.423 25.321,10.792 26.11,10.015C26.904,9.233 27.5,8.213 27.5,7L24.5,7ZM14,10.5C10.835,10.5 8.04,9.963 6.092,9.151C5.114,8.744 4.421,8.297 3.996,7.878C3.575,7.463 3.5,7.168 3.5,7L0.5,7C0.5,8.213 1.096,9.233 1.89,10.015C2.679,10.792 3.744,11.423 4.938,11.92C7.333,12.918 10.538,13.5 14,13.5L14,10.5ZM3.5,7C3.5,6.832 3.575,6.537 3.996,6.122C4.421,5.703 5.114,5.256 6.092,4.849C8.04,4.037 10.835,3.5 14,3.5L14,0.5C10.538,0.5 7.333,1.082 4.938,2.08C3.744,2.577 2.679,3.208 1.89,3.985C1.096,4.767 0.5,5.787 0.5,7L3.5,7ZM14,3.5C17.165,3.5 19.96,4.037 21.908,4.849C22.886,5.256 23.579,5.703 24.004,6.122C24.425,6.537 24.5,6.832 24.5,7L27.5,7C27.5,5.787 26.904,4.767 26.11,3.985C25.321,3.208 24.256,2.577 23.062,2.08C20.667,1.082 17.462,0.5 14,0.5L14,3.5Z" fill="#16151C"/>
</svg>
