<svg width="158" height="40" viewBox="0 0 158 40" fill="none" xmlns="http://www.w3.org/2000/svg" xmlns:xlink="http://www.w3.org/1999/xlink">
<path d="M26.078,38.645L26.078,-0.35L32.095,-0.35L32.095,38.645L26.078,38.645ZM0.62,38.645L0.62,-0.35L6.636,-0.35L6.636,38.645L0.62,38.645ZM3.238,22.1L3.238,16.306L28.752,16.306L28.752,22.1L3.238,22.1Z" fill="#16151C"/>
<path d="M42.999,38.645L42.999,-0.35L59.6,-0.35C61.828,-0.35 63.871,0.207 65.728,1.321C67.622,2.398 69.126,3.883 70.24,5.777C71.354,7.634 71.911,9.733 71.911,12.072C71.911,14.189 71.354,16.157 70.24,17.977C69.126,19.797 67.64,21.264 65.783,22.378C63.926,23.455 61.865,23.994 59.6,23.994L49.015,23.994L49.015,38.645L42.999,38.645ZM66.173,38.645L56.257,21.041L62.441,19.649L73.471,38.7L66.173,38.645ZM49.015,18.2L60.157,18.2C61.234,18.2 62.199,17.94 63.054,17.42C63.908,16.863 64.576,16.12 65.059,15.192C65.542,14.226 65.783,13.168 65.783,12.017C65.783,10.717 65.468,9.584 64.836,8.618C64.242,7.616 63.388,6.836 62.274,6.279C61.197,5.722 59.971,5.443 58.597,5.443L49.015,5.443L49.015,18.2Z" fill="#16151C"/>
<path d="M81.733,38.645L81.733,-0.35L87.638,-0.35L101.843,22.768L99.002,22.712L113.375,-0.35L118.945,-0.35L118.945,38.645L112.929,38.645L112.929,22.657C112.929,19.314 113.003,16.306 113.152,13.632C113.337,10.958 113.634,8.303 114.043,5.666L114.823,7.727L102.066,27.448L98.389,27.448L86.022,7.95L86.635,5.666C87.044,8.154 87.322,10.717 87.471,13.354C87.656,15.953 87.749,19.054 87.749,22.657L87.749,38.645L81.733,38.645Z" fill="#16151C"/>
<path d="M141.911,39.202C139.794,39.202 137.826,38.923 136.006,38.366C134.223,37.809 132.589,36.973 131.104,35.859C129.655,34.708 128.356,33.297 127.204,31.626L131.327,26.89C133.146,29.49 134.892,31.291 136.563,32.294C138.234,33.297 140.221,33.798 142.524,33.798C143.935,33.798 145.216,33.575 146.368,33.13C147.519,32.684 148.429,32.071 149.097,31.291C149.766,30.511 150.1,29.62 150.1,28.617C150.1,27.949 149.989,27.318 149.766,26.723C149.543,26.129 149.19,25.591 148.707,25.108C148.262,24.625 147.667,24.179 146.925,23.771C146.219,23.362 145.383,23.01 144.418,22.712C143.452,22.378 142.338,22.1 141.075,21.877C139.07,21.468 137.324,20.93 135.839,20.261C134.353,19.593 133.109,18.757 132.106,17.754C131.104,16.752 130.361,15.619 129.878,14.356C129.395,13.056 129.154,11.608 129.154,10.011C129.154,8.451 129.488,7.003 130.157,5.666C130.862,4.329 131.809,3.178 132.998,2.212C134.223,1.209 135.653,0.448 137.287,-0.072C138.921,-0.629 140.685,-0.907 142.579,-0.907C144.585,-0.907 146.423,-0.648 148.094,-0.128C149.766,0.392 151.251,1.172 152.551,2.212C153.851,3.215 154.928,4.459 155.782,5.945L151.548,10.123C150.806,8.897 149.97,7.876 149.041,7.059C148.113,6.204 147.092,5.573 145.978,5.165C144.863,4.719 143.675,4.496 142.412,4.496C140.964,4.496 139.701,4.719 138.624,5.165C137.547,5.61 136.693,6.242 136.062,7.059C135.467,7.839 135.17,8.767 135.17,9.844C135.17,10.624 135.319,11.348 135.616,12.017C135.913,12.648 136.359,13.224 136.953,13.744C137.584,14.226 138.42,14.672 139.46,15.08C140.5,15.452 141.744,15.786 143.192,16.083C145.235,16.529 147.055,17.105 148.652,17.81C150.248,18.479 151.604,19.277 152.718,20.206C153.832,21.134 154.668,22.174 155.225,23.325C155.819,24.476 156.116,25.721 156.116,27.058C156.116,29.546 155.541,31.7 154.389,33.52C153.238,35.339 151.604,36.751 149.487,37.753C147.37,38.719 144.845,39.202 141.911,39.202Z" fill="#16151C"/>
</svg>
