<svg width="48" height="48" viewBox="0 0 48 48" fill="none" xmlns="http://www.w3.org/2000/svg" xmlns:xlink="http://www.w3.org/1999/xlink">
<line x1="14.5" y1="4" x2="14.5" y2="10" stroke="#16151C" stroke-width="1.5" stroke-miterlimit="3.999327" stroke-linecap="round" stroke-linejoin="round"/>
<line x1="30.5" y1="4" x2="30.5" y2="10" stroke="#16151C" stroke-width="1.5" stroke-miterlimit="3.999327" stroke-linecap="round" stroke-linejoin="round"/>
<path d="M14,8.5L34,8.5L34,5.5L14,5.5L14,8.5ZM40.5,15L40.5,36L43.5,36L43.5,15L40.5,15ZM34,42.5L14,42.5L14,45.5L34,45.5L34,42.5ZM7.5,36L7.5,15L4.5,15L4.5,36L7.5,36ZM14,42.5C10.41,42.5 7.5,39.59 7.5,36L4.5,36C4.5,41.247 8.753,45.5 14,45.5L14,42.5ZM40.5,36C40.5,39.59 37.59,42.5 34,42.5L34,45.5C39.247,45.5 43.5,41.247 43.5,36L40.5,36ZM34,8.5C37.59,8.5 40.5,11.41 40.5,15L43.5,15C43.5,9.753 39.247,5.5 34,5.5L34,8.5ZM14,5.5C8.753,5.5 4.5,9.753 4.5,15L7.5,15C7.5,11.41 10.41,8.5 14,8.5L14,5.5Z" fill="#16151C"/>
<path d="M18.937,28.829C18.29,28.311 17.346,28.416 16.829,29.063C16.311,29.71 16.416,30.654 17.063,31.171L18.937,28.829ZM31.129,26.988C31.674,26.364 31.611,25.417 30.988,24.871C30.364,24.326 29.417,24.389 28.871,25.012L31.129,26.988ZM21.506,32.805L20.569,33.976L21.506,32.805ZM17.063,31.171L20.569,33.976L22.443,31.633L18.937,28.829L17.063,31.171ZM25.389,33.548L31.129,26.988L28.871,25.012L23.131,31.572L25.389,33.548ZM20.569,33.976C22.031,35.146 24.156,34.957 25.389,33.548L23.131,31.572C22.955,31.773 22.652,31.8 22.443,31.633L20.569,33.976Z" fill="#16151C"/>
<line x1="6" y1="16.5" x2="42" y2="16.5" stroke="#16151C" stroke-width="1.5" stroke-miterlimit="3.999327" stroke-linecap="round"/>
</svg>
