<svg width="48" height="48" viewBox="0 0 48 48" fill="none" xmlns="http://www.w3.org/2000/svg" xmlns:xlink="http://www.w3.org/1999/xlink">
<path d="M14.5,12C14.5,12.828 15.172,13.5 16,13.5C16.828,13.5 17.5,12.828 17.5,12L14.5,12ZM30.5,12C30.5,12.828 31.172,13.5 32,13.5C32.828,13.5 33.5,12.828 33.5,12L30.5,12ZM4.832,19.447C4.142,18.987 3.211,19.174 2.752,19.863C2.292,20.553 2.479,21.484 3.168,21.943L4.832,19.447ZM44.832,21.943C45.521,21.484 45.708,20.553 45.248,19.863C44.789,19.174 43.858,18.987 43.168,19.447L44.832,21.943ZM19.806,27.314C20.63,27.397 21.365,26.795 21.448,25.971C21.53,25.147 20.929,24.412 20.105,24.329L19.806,27.314ZM27.895,24.329C27.071,24.412 26.47,25.147 26.552,25.971C26.635,26.795 27.37,27.397 28.194,27.314L27.895,24.329ZM12,13.5L36,13.5L36,10.5L12,10.5L12,13.5ZM42.5,20L42.5,36L45.5,36L45.5,20L42.5,20ZM36,42.5L12,42.5L12,45.5L36,45.5L36,42.5ZM5.5,36L5.5,20L2.5,20L2.5,36L5.5,36ZM12,42.5C8.41,42.5 5.5,39.59 5.5,36L2.5,36C2.5,41.247 6.753,45.5 12,45.5L12,42.5ZM42.5,36C42.5,39.59 39.59,42.5 36,42.5L36,45.5C41.247,45.5 45.5,41.247 45.5,36L42.5,36ZM36,13.5C39.59,13.5 42.5,16.41 42.5,20L45.5,20C45.5,14.753 41.247,10.5 36,10.5L36,13.5ZM12,10.5C6.753,10.5 2.5,14.753 2.5,20L5.5,20C5.5,16.41 8.41,13.5 12,13.5L12,10.5ZM17.5,12L17.5,10L14.5,10L14.5,12L17.5,12ZM22,5.5L26,5.5L26,2.5L22,2.5L22,5.5ZM30.5,10L30.5,12L33.5,12L33.5,10L30.5,10ZM26,5.5C28.485,5.5 30.5,7.515 30.5,10L33.5,10C33.5,5.858 30.142,2.5 26,2.5L26,5.5ZM17.5,10C17.5,7.515 19.515,5.5 22,5.5L22,2.5C17.858,2.5 14.5,5.858 14.5,10L17.5,10ZM4,20.695C3.168,21.943 3.169,21.944 3.169,21.944C3.169,21.944 3.17,21.944 3.17,21.945C3.171,21.945 3.172,21.946 3.173,21.946C3.174,21.947 3.176,21.949 3.179,21.95C3.184,21.954 3.191,21.958 3.199,21.963C3.215,21.974 3.237,21.988 3.265,22.006C3.322,22.042 3.403,22.093 3.506,22.156C3.714,22.283 4.015,22.46 4.404,22.674C5.182,23.101 6.313,23.675 7.754,24.277C10.635,25.482 14.769,26.81 19.806,27.314L20.105,24.329C15.422,23.86 11.579,22.625 8.912,21.51C7.579,20.952 6.544,20.427 5.849,20.045C5.501,19.854 5.239,19.699 5.068,19.594C4.982,19.542 4.919,19.503 4.879,19.477C4.86,19.465 4.846,19.456 4.838,19.451C4.834,19.448 4.831,19.446 4.83,19.446C4.83,19.445 4.829,19.445 4.83,19.445C4.83,19.445 4.83,19.446 4.83,19.446C4.831,19.446 4.831,19.446 4.831,19.446C4.831,19.446 4.832,19.447 4,20.695ZM28.194,27.314C33.231,26.81 37.365,25.482 40.246,24.277C41.687,23.675 42.818,23.101 43.596,22.674C43.985,22.46 44.286,22.283 44.494,22.156C44.597,22.093 44.678,22.042 44.735,22.006C44.763,21.988 44.785,21.974 44.801,21.963C44.809,21.958 44.816,21.954 44.821,21.95C44.824,21.949 44.826,21.947 44.827,21.946C44.828,21.946 44.829,21.945 44.83,21.945C44.83,21.944 44.831,21.944 44.831,21.944C44.831,21.944 44.832,21.943 44,20.695C43.168,19.447 43.169,19.446 43.169,19.446C43.169,19.446 43.169,19.446 43.17,19.446C43.17,19.446 43.17,19.445 43.17,19.445C43.171,19.445 43.17,19.445 43.17,19.446C43.169,19.446 43.166,19.448 43.162,19.451C43.154,19.456 43.14,19.465 43.121,19.477C43.081,19.503 43.018,19.542 42.932,19.594C42.761,19.699 42.499,19.854 42.151,20.045C41.456,20.427 40.421,20.952 39.088,21.51C36.421,22.625 32.578,23.86 27.895,24.329L28.194,27.314Z" fill="#16151C"/>
<path d="M26.5,24.32L26.5,26.32L29.5,26.32L29.5,24.32L26.5,24.32ZM26.5,26.32C26.5,26.32 26.5,26.32 26.5,26.32C26.5,26.32 26.5,26.32 26.5,26.32C26.5,26.32 26.5,26.32 26.5,26.32C26.5,26.32 26.5,26.32 26.5,26.321C26.5,26.321 26.5,26.321 26.5,26.321C26.5,26.321 26.5,26.321 26.5,26.321C26.5,26.321 26.5,26.321 26.5,26.321C26.5,26.321 26.5,26.321 26.5,26.321C26.5,26.321 26.5,26.321 26.5,26.321C26.5,26.321 26.5,26.321 26.5,26.321C26.5,26.321 26.5,26.321 26.5,26.321C26.5,26.321 26.5,26.321 26.5,26.321C26.5,26.321 26.5,26.322 26.5,26.322C26.5,26.322 26.5,26.322 26.5,26.322C26.5,26.322 26.5,26.322 26.5,26.322C26.5,26.322 26.5,26.322 26.5,26.322C26.5,26.322 26.5,26.322 26.5,26.322C26.5,26.322 26.5,26.322 26.5,26.322C26.5,26.322 26.5,26.322 26.5,26.322C26.5,26.322 26.5,26.322 26.5,26.322C26.5,26.322 26.5,26.322 26.5,26.322C26.5,26.322 26.5,26.323 26.5,26.323C26.5,26.323 26.5,26.323 26.5,26.323C26.5,26.323 26.5,26.323 26.5,26.323C26.5,26.323 26.5,26.323 26.5,26.323C26.5,26.323 26.5,26.323 26.5,26.323C26.5,26.323 26.5,26.323 26.5,26.323C26.5,26.323 26.5,26.323 26.5,26.323C26.5,26.323 26.5,26.323 26.5,26.323C26.5,26.323 26.5,26.323 26.5,26.323C26.5,26.323 26.5,26.323 26.5,26.323C26.5,26.324 26.5,26.324 26.5,26.324C26.5,26.324 26.5,26.324 26.5,26.324C26.5,26.324 26.5,26.324 26.5,26.324C26.5,26.324 26.5,26.324 26.5,26.324C26.5,26.324 26.5,26.324 26.5,26.324C26.5,26.324 26.5,26.324 26.5,26.324C26.5,26.324 26.5,26.324 26.5,26.324C26.5,26.324 26.5,26.324 26.5,26.324C26.5,26.324 26.5,26.324 26.5,26.324C26.5,26.324 26.5,26.324 26.5,26.325C26.5,26.325 26.5,26.325 26.5,26.325C26.5,26.325 26.5,26.325 26.5,26.325C26.5,26.325 26.5,26.325 26.5,26.325C26.5,26.325 26.5,26.325 26.5,26.325C26.5,26.325 26.5,26.325 26.5,26.325C26.5,26.325 26.5,26.325 26.5,26.325C26.5,26.325 26.5,26.325 26.5,26.325C26.5,26.325 26.5,26.325 26.5,26.325C26.5,26.325 26.5,26.325 26.5,26.325C26.5,26.325 26.5,26.325 26.5,26.325C26.5,26.326 26.5,26.326 26.5,26.326C26.5,26.326 26.5,26.326 26.5,26.326C26.5,26.326 26.5,26.326 26.5,26.326C26.5,26.326 26.5,26.326 26.5,26.326C26.5,26.326 26.5,26.326 26.5,26.326C26.5,26.326 26.5,26.326 26.5,26.326C26.5,26.326 26.5,26.326 26.5,26.326C26.5,26.326 26.5,26.326 26.5,26.326C26.5,26.326 26.5,26.326 26.5,26.326C26.5,26.326 26.5,26.326 26.5,26.326C26.5,26.326 26.5,26.326 26.5,26.327C26.5,26.327 26.5,26.327 26.5,26.327C26.5,26.327 26.5,26.327 26.5,26.327C26.5,26.327 26.5,26.327 26.5,26.327C26.5,26.327 26.5,26.327 26.5,26.327C26.5,26.327 26.5,26.327 26.5,26.327C26.5,26.327 26.5,26.327 26.5,26.327C26.5,26.327 26.5,26.327 26.5,26.327C26.5,26.327 26.5,26.327 26.5,26.327C26.5,26.327 26.5,26.327 26.5,26.327C26.5,26.327 26.5,26.327 26.5,26.327C26.5,26.327 26.5,26.327 26.5,26.328C26.5,26.328 26.5,26.328 26.5,26.328C26.5,26.328 26.5,26.328 26.5,26.328C26.5,26.328 26.5,26.328 26.5,26.328C26.5,26.328 26.5,26.328 26.5,26.328C26.5,26.328 26.5,26.328 26.5,26.328C26.5,26.328 26.5,26.328 26.5,26.328C26.5,26.328 26.5,26.328 26.5,26.328C26.5,26.328 26.5,26.328 26.5,26.328C26.5,26.328 26.5,26.328 26.5,26.328C26.5,26.328 26.5,26.328 26.5,26.328C26.5,26.328 26.5,26.328 26.5,26.328C26.5,26.329 26.5,26.329 26.5,26.329C26.5,26.329 26.5,26.329 26.5,26.329C26.5,26.329 26.5,26.329 26.5,26.329C26.5,26.329 26.5,26.329 26.5,26.329C26.5,26.329 26.5,26.329 26.5,26.329C26.5,26.329 26.5,26.329 26.5,26.329C26.5,26.329 26.5,26.329 26.5,26.329C26.5,26.329 26.5,26.329 26.5,26.329C26.5,26.329 26.5,26.329 26.5,26.329C26.5,26.329 26.5,26.329 26.5,26.329C26.5,26.329 26.5,26.329 26.5,26.329C26.5,26.329 26.5,26.329 26.5,26.329C26.5,26.33 26.5,26.33 26.5,26.33C26.5,26.33 26.5,26.33 26.5,26.33C26.5,26.33 26.5,26.33 26.5,26.33C26.5,26.33 26.5,26.33 26.5,26.33C26.5,26.33 26.5,26.33 26.5,26.33C26.5,26.33 26.5,26.33 26.5,26.33C26.5,26.33 26.5,26.33 26.5,26.33C26.5,26.33 26.5,26.33 26.5,26.33C26.5,26.33 26.5,26.33 26.5,26.33C26.5,26.33 26.5,26.33 26.5,26.33C26.5,26.33 26.5,26.33 26.5,26.33C26.5,26.33 26.5,26.33 26.5,26.33C26.5,26.33 26.5,26.33 26.5,26.331C26.5,26.331 26.5,26.331 26.5,26.331C26.5,26.331 26.5,26.331 26.5,26.331C26.5,26.331 26.5,26.331 26.5,26.331C26.5,26.331 26.5,26.331 26.5,26.331C26.5,26.331 26.5,26.331 26.5,26.331C26.5,26.331 26.5,26.331 26.5,26.331C26.5,26.331 26.5,26.331 26.5,26.331C26.5,26.331 26.5,26.331 26.5,26.331C26.5,26.331 26.5,26.331 26.5,26.331C26.5,26.331 26.5,26.331 26.5,26.331C26.5,26.331 26.5,26.331 26.5,26.331C26.5,26.331 26.5,26.331 26.5,26.331C26.5,26.331 26.5,26.331 26.5,26.332C26.5,26.332 26.5,26.332 26.5,26.332C26.5,26.332 26.5,26.332 26.5,26.332C26.5,26.332 26.5,26.332 26.5,26.332C26.5,26.332 26.5,26.332 26.5,26.332C26.5,26.332 26.5,26.332 26.5,26.332C26.5,26.332 26.5,26.332 26.5,26.332C26.5,26.332 26.5,26.332 26.5,26.332C26.5,26.332 26.5,26.332 26.5,26.332C26.5,26.332 26.5,26.332 26.5,26.332C26.5,26.332 26.5,26.332 26.5,26.332C26.5,26.332 26.5,26.332 26.5,26.332C26.5,26.332 26.5,26.332 26.5,26.332C26.5,26.332 26.5,26.332 26.5,26.332C26.5,26.332 26.5,26.333 26.5,26.333C26.5,26.333 26.5,26.333 26.5,26.333C26.5,26.333 26.5,26.333 26.5,26.333C26.5,26.333 26.5,26.333 26.5,26.333C26.5,26.333 26.5,26.333 26.5,26.333C26.5,26.333 26.5,26.333 26.5,26.333C26.5,26.333 26.5,26.333 26.5,26.333C26.5,26.333 26.5,26.333 26.5,26.333C26.5,26.333 26.5,26.333 26.5,26.333C26.5,26.333 26.5,26.333 26.5,26.333C26.5,26.333 26.5,26.333 26.5,26.333C26.5,26.333 26.5,26.333 26.5,26.333C26.5,26.333 26.5,26.333 26.5,26.333C26.5,26.333 26.5,26.333 26.5,26.333C26.5,26.333 26.5,26.333 26.5,26.334C26.5,26.334 26.5,26.334 26.5,26.334C26.5,26.334 26.5,26.334 26.5,26.334C26.5,26.334 26.5,26.334 26.5,26.334C26.5,26.334 26.5,26.334 26.5,26.334C26.5,26.334 26.5,26.334 26.5,26.334C26.5,26.334 26.5,26.334 26.5,26.334C26.5,26.334 26.5,26.334 26.5,26.334C26.5,26.334 26.5,26.334 26.5,26.334C26.5,26.334 26.5,26.334 26.5,26.334C26.5,26.334 26.5,26.334 26.5,26.334C26.5,26.334 26.5,26.334 26.5,26.334C26.5,26.334 26.5,26.334 26.5,26.334C26.5,26.334 26.5,26.334 26.5,26.334C26.5,26.334 26.5,26.334 26.5,26.334C26.5,26.334 26.5,26.334 26.5,26.335C26.5,26.335 26.5,26.335 26.5,26.335C26.5,26.335 26.5,26.335 26.5,26.335C26.5,26.335 26.5,26.335 26.5,26.335C26.5,26.335 26.5,26.335 26.5,26.335C26.5,26.335 26.5,26.335 26.5,26.335C26.5,26.335 26.5,26.335 26.5,26.335C26.5,26.335 26.5,26.335 26.5,26.335C26.5,26.335 26.5,26.335 26.5,26.335C26.5,26.335 26.5,26.335 26.5,26.335C26.5,26.335 26.5,26.335 26.5,26.335C26.5,26.335 26.5,26.335 26.5,26.335C26.5,26.335 26.5,26.335 26.5,26.335C26.5,26.335 26.5,26.335 26.5,26.335C26.5,26.335 26.5,26.335 26.5,26.335C26.5,26.335 26.5,26.335 26.5,26.335C26.5,26.336 26.5,26.336 26.5,26.336C26.5,26.336 26.5,26.336 26.5,26.336C26.5,26.336 26.5,26.336 26.5,26.336C26.5,26.336 26.5,26.336 26.5,26.336C26.5,26.336 26.5,26.336 26.5,26.336C26.5,26.336 26.5,26.336 26.5,26.336C26.5,26.336 26.5,26.336 26.5,26.336C26.5,26.336 26.5,26.336 26.5,26.336C26.5,26.336 26.5,26.336 26.5,26.336C26.5,26.336 26.5,26.336 26.5,26.336C26.5,26.336 26.5,26.336 26.5,26.336C26.5,26.336 26.5,26.336 26.5,26.336C26.5,26.336 26.5,26.336 26.5,26.336C26.5,26.336 26.5,26.336 26.5,26.336C26.5,26.336 26.5,26.336 26.5,26.336C26.5,26.336 26.5,26.336 26.5,26.336C26.5,26.337 26.5,26.337 26.5,26.337C26.5,26.337 26.5,26.337 26.5,26.337C26.5,26.337 26.5,26.337 26.5,26.337C26.5,26.337 26.5,26.337 26.5,26.337C26.5,26.337 26.5,26.337 26.5,26.337C26.5,26.337 26.5,26.337 26.5,26.337C26.5,26.337 26.5,26.337 26.5,26.337C26.5,26.337 26.5,26.337 26.5,26.337C26.5,26.337 26.5,26.337 26.5,26.337C26.5,26.337 26.5,26.337 26.5,26.337C26.5,26.337 26.5,26.337 26.5,26.337C26.5,26.337 26.5,26.337 26.5,26.337C26.5,26.337 26.5,26.337 26.5,26.337C26.5,26.337 26.5,26.337 26.5,26.337C26.5,26.337 26.5,26.337 26.5,26.337C26.5,26.337 26.5,26.337 26.5,26.337C26.5,26.337 26.5,26.338 26.5,26.338C26.5,26.338 26.5,26.338 26.5,26.338C26.5,26.338 26.5,26.338 26.5,26.338C26.5,26.338 26.5,26.338 26.5,26.338C26.5,26.338 26.5,26.338 26.5,26.338C26.5,26.338 26.5,26.338 26.5,26.338C26.5,26.338 26.5,26.338 26.5,26.338C26.5,26.338 26.5,26.338 26.5,26.338C26.5,26.338 26.5,26.338 26.5,26.338C26.5,26.338 26.5,26.338 26.5,26.338C26.5,26.338 26.5,26.338 26.5,26.338C26.5,26.338 26.5,26.338 26.5,26.338C26.5,26.338 26.5,26.338 26.5,26.338C26.5,26.338 26.5,26.338 26.5,26.338C26.5,26.338 26.5,26.338 26.5,26.338C26.5,26.338 26.5,26.338 26.5,26.338C26.5,26.338 26.5,26.338 26.5,26.338C26.5,26.339 26.5,26.339 26.5,26.339C26.5,26.339 26.5,26.339 26.5,26.339C26.5,26.339 26.5,26.339 26.5,26.339C26.5,26.339 26.5,26.339 26.5,26.339C26.5,26.339 26.5,26.339 26.5,26.339C26.5,26.339 26.5,26.339 26.5,26.339C26.5,26.339 26.5,26.339 26.5,26.339C26.5,26.339 26.5,26.339 26.5,26.339C26.5,26.339 26.5,26.339 26.5,26.339C26.5,26.339 26.5,26.339 26.5,26.339C26.5,26.339 26.5,26.339 26.5,26.339C26.5,26.339 26.5,26.339 26.5,26.339C26.5,26.339 26.5,26.339 26.5,26.339C26.5,26.339 26.5,26.339 26.5,26.339C26.5,26.339 26.5,26.339 26.5,26.339C26.5,26.339 26.5,26.339 26.5,26.339C26.5,26.339 26.5,26.339 26.5,26.339C26.5,26.34 26.5,26.34 26.5,26.34C26.5,26.34 26.5,26.34 26.5,26.34C26.5,26.34 26.5,26.34 26.5,26.34C26.5,26.34 26.5,26.34 26.5,26.34C26.5,26.34 26.5,26.34 26.5,26.34C26.5,26.34 26.5,26.34 26.5,26.34C26.5,26.34 26.5,26.34 26.5,26.34C26.5,26.34 26.5,26.34 26.5,26.34C26.5,26.34 26.5,26.34 26.5,26.34C26.5,26.34 26.5,26.34 26.5,26.34C26.5,26.34 26.5,26.34 26.5,26.34C26.5,26.34 26.5,26.34 26.5,26.34C26.5,26.34 26.5,26.34 26.5,26.34C26.5,26.34 26.5,26.34 26.5,26.34C26.5,26.34 26.5,26.34 26.5,26.34C26.5,26.34 26.5,26.34 26.5,26.34C26.5,26.34 26.5,26.34 26.5,26.34C26.5,26.341 26.5,26.341 26.5,26.341C26.5,26.341 26.5,26.341 26.5,26.341C26.5,26.341 26.5,26.341 26.5,26.341C26.5,26.341 26.5,26.341 26.5,26.341C26.5,26.341 26.5,26.341 26.5,26.341C26.5,26.341 26.5,26.341 26.5,26.341C26.5,26.341 26.5,26.341 26.5,26.341C26.5,26.341 26.5,26.341 26.5,26.341C26.5,26.341 26.5,26.341 26.5,26.341C26.5,26.341 26.5,26.341 26.5,26.341C26.5,26.341 26.5,26.341 26.5,26.341C26.5,26.341 26.5,26.341 26.5,26.341C26.5,26.341 26.5,26.341 26.5,26.341C26.5,26.341 26.5,26.341 26.5,26.341C26.5,26.341 26.5,26.341 26.5,26.341C26.5,26.341 26.5,26.341 26.5,26.341C26.5,26.341 26.5,26.341 26.5,26.341C26.5,26.342 26.5,26.342 26.5,26.342C26.5,26.342 26.5,26.342 26.5,26.342C26.5,26.342 26.5,26.342 26.5,26.342C26.5,26.342 26.5,26.342 26.5,26.342C26.5,26.342 26.5,26.342 26.5,26.342C26.5,26.342 26.5,26.342 26.5,26.342C26.5,26.342 26.5,26.342 26.5,26.342C26.5,26.342 26.5,26.342 26.5,26.342C26.5,26.342 26.5,26.342 26.5,26.342C26.5,26.342 26.5,26.342 26.5,26.342C26.5,26.342 26.5,26.342 26.5,26.342C26.5,26.342 26.5,26.342 26.5,26.342C26.5,26.342 26.5,26.342 26.5,26.342C26.5,26.342 26.5,26.342 26.5,26.342C26.5,26.342 26.5,26.342 26.5,26.342C26.5,26.342 26.5,26.342 26.5,26.342C26.5,26.342 26.5,26.342 26.5,26.342C26.5,26.343 26.5,26.343 26.5,26.343C26.5,26.343 26.5,26.343 26.5,26.343C26.5,26.343 26.5,26.343 26.5,26.343C26.5,26.343 26.5,26.343 26.5,26.343C26.5,26.343 26.5,26.343 26.5,26.343C26.5,26.343 26.5,26.343 26.5,26.343C26.5,26.343 26.5,26.343 26.5,26.343C26.5,26.343 26.5,26.343 26.5,26.343C26.5,26.343 26.5,26.343 26.5,26.343C26.5,26.343 26.5,26.343 26.5,26.343C26.5,26.343 26.5,26.343 26.5,26.343C26.5,26.343 26.5,26.343 26.5,26.343C26.5,26.343 26.5,26.343 26.5,26.343C26.5,26.343 26.5,26.343 26.5,26.343C26.5,26.343 26.5,26.343 26.5,26.343C26.5,26.343 26.5,26.343 26.5,26.343C26.5,26.343 26.5,26.344 26.5,26.344C26.5,26.344 26.5,26.344 26.5,26.344C26.5,26.344 26.5,26.344 26.5,26.344C26.5,26.344 26.5,26.344 26.5,26.344C26.5,26.344 26.5,26.344 26.5,26.344C26.5,26.344 26.5,26.344 26.5,26.344C26.5,26.344 26.5,26.344 26.5,26.344C26.5,26.344 26.5,26.344 26.5,26.344C26.5,26.344 26.5,26.344 26.5,26.344C26.5,26.344 26.5,26.344 26.5,26.344C26.5,26.344 26.5,26.344 26.5,26.344C26.5,26.344 26.5,26.344 26.5,26.344C26.5,26.344 26.5,26.344 26.5,26.344C26.5,26.344 26.5,26.344 26.5,26.344C26.5,26.344 26.5,26.344 26.5,26.344C26.5,26.344 26.5,26.344 26.5,26.344C26.5,26.344 26.5,26.345 26.5,26.345C26.5,26.345 26.5,26.345 26.5,26.345C26.5,26.345 26.5,26.345 26.5,26.345C26.5,26.345 26.5,26.345 26.5,26.345C26.5,26.345 26.5,26.345 26.5,26.345C26.5,26.345 26.5,26.345 26.5,26.345C26.5,26.345 26.5,26.345 26.5,26.345C26.5,26.345 26.5,26.345 26.5,26.345C26.5,26.345 26.5,26.345 26.5,26.345C26.5,26.345 26.5,26.345 26.5,26.345C26.5,26.345 26.5,26.345 26.5,26.345C26.5,26.345 26.5,26.345 26.5,26.345C26.5,26.345 26.5,26.345 26.5,26.345C26.5,26.345 26.5,26.345 26.5,26.345C26.5,26.345 26.5,26.345 26.5,26.345C26.5,26.345 26.5,26.345 26.5,26.345C26.5,26.346 26.5,26.346 26.5,26.346C26.5,26.346 26.5,26.346 26.5,26.346C26.5,26.346 26.5,26.346 26.5,26.346C26.5,26.346 26.5,26.346 26.5,26.346C26.5,26.346 26.5,26.346 26.5,26.346C26.5,26.346 26.5,26.346 26.5,26.346C26.5,26.346 26.5,26.346 26.5,26.346C26.5,26.346 26.5,26.346 26.5,26.346C26.5,26.346 26.5,26.346 26.5,26.346C26.5,26.346 26.5,26.346 26.5,26.346C26.5,26.346 26.5,26.346 26.5,26.346C26.5,26.346 26.5,26.346 26.5,26.346C26.5,26.346 26.5,26.346 26.5,26.346C26.5,26.346 26.5,26.346 26.5,26.346C26.5,26.346 26.5,26.346 26.5,26.346C26.5,26.347 26.5,26.347 26.5,26.347C26.5,26.347 26.5,26.347 26.5,26.347C26.5,26.347 26.5,26.347 26.5,26.347C26.5,26.347 26.5,26.347 26.5,26.347C26.5,26.347 26.5,26.347 26.5,26.347C26.5,26.347 26.5,26.347 26.5,26.347C26.5,26.347 26.5,26.347 26.5,26.347C26.5,26.347 26.5,26.347 26.5,26.347C26.5,26.347 26.5,26.347 26.5,26.347C26.5,26.347 26.5,26.347 26.5,26.347C26.5,26.347 26.5,26.347 26.5,26.347C26.5,26.347 26.5,26.347 26.5,26.347C26.5,26.347 26.5,26.347 26.5,26.347C26.5,26.347 26.5,26.347 26.5,26.347C26.5,26.347 26.5,26.348 26.5,26.348C26.5,26.348 26.5,26.348 26.5,26.348C26.5,26.348 26.5,26.348 26.5,26.348C26.5,26.348 26.5,26.348 26.5,26.348C26.5,26.348 26.5,26.348 26.5,26.348C26.5,26.348 26.5,26.348 26.5,26.348C26.5,26.348 26.5,26.348 26.5,26.348C26.5,26.348 26.5,26.348 26.5,26.348C26.5,26.348 26.5,26.348 26.5,26.348C26.5,26.348 26.5,26.348 26.5,26.348C26.5,26.348 26.5,26.348 26.5,26.348C26.5,26.348 26.5,26.348 26.5,26.348C26.5,26.348 26.5,26.348 26.5,26.348C26.5,26.348 26.5,26.348 26.5,26.348C26.5,26.349 26.5,26.349 26.5,26.349C26.5,26.349 26.5,26.349 26.5,26.349C26.5,26.349 26.5,26.349 26.5,26.349C26.5,26.349 26.5,26.349 26.5,26.349C26.5,26.349 26.5,26.349 26.5,26.349C26.5,26.349 26.5,26.349 26.5,26.349C26.5,26.349 26.5,26.349 26.5,26.349C26.5,26.349 26.5,26.349 26.5,26.349C26.5,26.349 26.5,26.349 26.5,26.349C26.5,26.349 26.5,26.349 26.5,26.349C26.5,26.349 26.5,26.349 26.5,26.349C26.5,26.349 26.5,26.349 26.5,26.349C26.5,26.349 26.5,26.349 26.5,26.349C26.5,26.35 26.5,26.35 26.5,26.35C26.5,26.35 26.5,26.35 26.5,26.35C26.5,26.35 26.5,26.35 26.5,26.35C26.5,26.35 26.5,26.35 26.5,26.35C26.5,26.35 26.5,26.35 26.5,26.35C26.5,26.35 26.5,26.35 26.5,26.35C26.5,26.35 26.5,26.35 26.5,26.35C26.5,26.35 26.5,26.35 26.5,26.35C26.5,26.35 26.5,26.35 26.5,26.35C26.5,26.35 26.5,26.35 26.5,26.35C26.5,26.35 26.5,26.35 26.5,26.35C26.5,26.35 26.5,26.35 26.5,26.35C26.5,26.35 26.5,26.35 26.5,26.351C26.5,26.351 26.5,26.351 26.5,26.351C26.5,26.351 26.5,26.351 26.5,26.351C26.5,26.351 26.5,26.351 26.5,26.351C26.5,26.351 26.5,26.351 26.5,26.351C26.5,26.351 26.5,26.351 26.5,26.351C26.5,26.351 26.5,26.351 26.5,26.351C26.5,26.351 26.5,26.351 26.5,26.351C26.5,26.351 26.5,26.351 26.5,26.351C26.5,26.351 26.5,26.351 26.5,26.351C26.5,26.351 26.5,26.351 26.5,26.351C26.5,26.351 26.5,26.351 26.5,26.351C26.5,26.351 26.5,26.351 26.5,26.351C26.5,26.352 26.5,26.352 26.5,26.352C26.5,26.352 26.5,26.352 26.5,26.352C26.5,26.352 26.5,26.352 26.5,26.352C26.5,26.352 26.5,26.352 26.5,26.352C26.5,26.352 26.5,26.352 26.5,26.352C26.5,26.352 26.5,26.352 26.5,26.352C26.5,26.352 26.5,26.352 26.5,26.352C26.5,26.352 26.5,26.352 26.5,26.352C26.5,26.352 26.5,26.352 26.5,26.352C26.5,26.352 26.5,26.352 26.5,26.352C26.5,26.352 26.5,26.352 26.5,26.352C26.5,26.352 26.5,26.353 26.5,26.353C26.5,26.353 26.5,26.353 26.5,26.353C26.5,26.353 26.5,26.353 26.5,26.353C26.5,26.353 26.5,26.353 26.5,26.353C26.5,26.353 26.5,26.353 26.5,26.353C26.5,26.353 26.5,26.353 26.5,26.353C26.5,26.353 26.5,26.353 26.5,26.353C26.5,26.353 26.5,26.353 26.5,26.353C26.5,26.353 26.5,26.353 26.5,26.353C26.5,26.353 26.5,26.353 26.5,26.353C26.5,26.353 26.5,26.353 26.5,26.353C26.5,26.353 26.5,26.353 26.5,26.354C26.5,26.354 26.5,26.354 26.5,26.354C26.5,26.354 26.5,26.354 26.5,26.354C26.5,26.354 26.5,26.354 26.5,26.354C26.5,26.354 26.5,26.354 26.5,26.354C26.5,26.354 26.5,26.354 26.5,26.354C26.5,26.354 26.5,26.354 26.5,26.354C26.5,26.354 26.5,26.354 26.5,26.354C26.5,26.354 26.5,26.354 26.5,26.354C26.5,26.354 26.5,26.354 26.5,26.354C26.5,26.354 26.5,26.354 26.5,26.354C26.5,26.354 26.5,26.355 26.5,26.355C26.5,26.355 26.5,26.355 26.5,26.355C26.5,26.355 26.5,26.355 26.5,26.355C26.5,26.355 26.5,26.355 26.5,26.355C26.5,26.355 26.5,26.355 26.5,26.355C26.5,26.355 26.5,26.355 26.5,26.355C26.5,26.355 26.5,26.355 26.5,26.355C26.5,26.355 26.5,26.355 26.5,26.355C26.5,26.355 26.5,26.355 26.5,26.355C26.5,26.355 26.5,26.355 26.5,26.355C26.5,26.355 26.5,26.355 26.5,26.356C26.5,26.356 26.5,26.356 26.5,26.356C26.5,26.356 26.5,26.356 26.5,26.356C26.5,26.356 26.5,26.356 26.5,26.356C26.5,26.356 26.5,26.356 26.5,26.356C26.5,26.356 26.5,26.356 26.5,26.356C26.5,26.356 26.5,26.356 26.5,26.356C26.5,26.356 26.5,26.356 26.5,26.356C26.5,26.356 26.5,26.356 26.5,26.356C26.5,26.356 26.5,26.356 26.5,26.356C26.5,26.356 26.5,26.357 26.5,26.357C26.5,26.357 26.5,26.357 26.5,26.357C26.5,26.357 26.5,26.357 26.5,26.357C26.5,26.357 26.5,26.357 26.5,26.357C26.5,26.357 26.5,26.357 26.5,26.357C26.5,26.357 26.5,26.357 26.5,26.357C26.5,26.357 26.5,26.357 26.5,26.357C26.5,26.357 26.5,26.357 26.5,26.357C26.5,26.357 26.5,26.357 26.5,26.357C26.5,26.357 26.5,26.357 26.5,26.357C26.5,26.358 26.5,26.358 26.5,26.358C26.5,26.358 26.5,26.358 26.5,26.358C26.5,26.358 26.5,26.358 26.5,26.358C26.5,26.358 26.5,26.358 26.5,26.358C26.5,26.358 26.5,26.358 26.5,26.358C26.5,26.358 26.5,26.358 26.5,26.358C26.5,26.358 26.5,26.358 26.5,26.358C26.5,26.358 26.5,26.358 26.5,26.358C26.5,26.358 26.5,26.358 26.5,26.358C26.5,26.359 26.5,26.359 26.5,26.359C26.5,26.359 26.5,26.359 26.5,26.359C26.5,26.359 26.5,26.359 26.5,26.359C26.5,26.359 26.5,26.359 26.5,26.359C26.5,26.359 26.5,26.359 26.5,26.359C26.5,26.359 26.5,26.359 26.5,26.359C26.5,26.359 26.5,26.359 26.5,26.359C26.5,26.359 26.5,26.359 26.5,26.359C26.5,26.359 26.5,26.359 26.5,26.359C26.5,26.36 26.5,26.36 26.5,26.36C26.5,26.36 26.5,26.36 26.5,26.36C26.5,26.36 26.5,26.36 26.5,26.36C26.5,26.36 26.5,26.36 26.5,26.36C26.5,26.36 26.5,26.36 26.5,26.36L29.5,26.36C29.5,26.36 29.5,26.36 29.5,26.36C29.5,26.36 29.5,26.36 29.5,26.36C29.5,26.36 29.5,26.36 29.5,26.36C29.5,26.36 29.5,26.36 29.5,26.36C29.5,26.36 29.5,26.36 29.5,26.359C29.5,26.359 29.5,26.359 29.5,26.359C29.5,26.359 29.5,26.359 29.5,26.359C29.5,26.359 29.5,26.359 29.5,26.359C29.5,26.359 29.5,26.359 29.5,26.359C29.5,26.359 29.5,26.359 29.5,26.359C29.5,26.359 29.5,26.359 29.5,26.359C29.5,26.359 29.5,26.359 29.5,26.359C29.5,26.359 29.5,26.359 29.5,26.359C29.5,26.359 29.5,26.359 29.5,26.358C29.5,26.358 29.5,26.358 29.5,26.358C29.5,26.358 29.5,26.358 29.5,26.358C29.5,26.358 29.5,26.358 29.5,26.358C29.5,26.358 29.5,26.358 29.5,26.358C29.5,26.358 29.5,26.358 29.5,26.358C29.5,26.358 29.5,26.358 29.5,26.358C29.5,26.358 29.5,26.358 29.5,26.358C29.5,26.358 29.5,26.358 29.5,26.358C29.5,26.358 29.5,26.358 29.5,26.357C29.5,26.357 29.5,26.357 29.5,26.357C29.5,26.357 29.5,26.357 29.5,26.357C29.5,26.357 29.5,26.357 29.5,26.357C29.5,26.357 29.5,26.357 29.5,26.357C29.5,26.357 29.5,26.357 29.5,26.357C29.5,26.357 29.5,26.357 29.5,26.357C29.5,26.357 29.5,26.357 29.5,26.357C29.5,26.357 29.5,26.357 29.5,26.357C29.5,26.357 29.5,26.357 29.5,26.357C29.5,26.357 29.5,26.356 29.5,26.356C29.5,26.356 29.5,26.356 29.5,26.356C29.5,26.356 29.5,26.356 29.5,26.356C29.5,26.356 29.5,26.356 29.5,26.356C29.5,26.356 29.5,26.356 29.5,26.356C29.5,26.356 29.5,26.356 29.5,26.356C29.5,26.356 29.5,26.356 29.5,26.356C29.5,26.356 29.5,26.356 29.5,26.356C29.5,26.356 29.5,26.356 29.5,26.356C29.5,26.356 29.5,26.356 29.5,26.356C29.5,26.355 29.5,26.355 29.5,26.355C29.5,26.355 29.5,26.355 29.5,26.355C29.5,26.355 29.5,26.355 29.5,26.355C29.5,26.355 29.5,26.355 29.5,26.355C29.5,26.355 29.5,26.355 29.5,26.355C29.5,26.355 29.5,26.355 29.5,26.355C29.5,26.355 29.5,26.355 29.5,26.355C29.5,26.355 29.5,26.355 29.5,26.355C29.5,26.355 29.5,26.355 29.5,26.355C29.5,26.355 29.5,26.355 29.5,26.355C29.5,26.355 29.5,26.354 29.5,26.354C29.5,26.354 29.5,26.354 29.5,26.354C29.5,26.354 29.5,26.354 29.5,26.354C29.5,26.354 29.5,26.354 29.5,26.354C29.5,26.354 29.5,26.354 29.5,26.354C29.5,26.354 29.5,26.354 29.5,26.354C29.5,26.354 29.5,26.354 29.5,26.354C29.5,26.354 29.5,26.354 29.5,26.354C29.5,26.354 29.5,26.354 29.5,26.354C29.5,26.354 29.5,26.354 29.5,26.354C29.5,26.354 29.5,26.354 29.5,26.354C29.5,26.353 29.5,26.353 29.5,26.353C29.5,26.353 29.5,26.353 29.5,26.353C29.5,26.353 29.5,26.353 29.5,26.353C29.5,26.353 29.5,26.353 29.5,26.353C29.5,26.353 29.5,26.353 29.5,26.353C29.5,26.353 29.5,26.353 29.5,26.353C29.5,26.353 29.5,26.353 29.5,26.353C29.5,26.353 29.5,26.353 29.5,26.353C29.5,26.353 29.5,26.353 29.5,26.353C29.5,26.353 29.5,26.353 29.5,26.353C29.5,26.353 29.5,26.353 29.5,26.353C29.5,26.353 29.5,26.352 29.5,26.352C29.5,26.352 29.5,26.352 29.5,26.352C29.5,26.352 29.5,26.352 29.5,26.352C29.5,26.352 29.5,26.352 29.5,26.352C29.5,26.352 29.5,26.352 29.5,26.352C29.5,26.352 29.5,26.352 29.5,26.352C29.5,26.352 29.5,26.352 29.5,26.352C29.5,26.352 29.5,26.352 29.5,26.352C29.5,26.352 29.5,26.352 29.5,26.352C29.5,26.352 29.5,26.352 29.5,26.352C29.5,26.352 29.5,26.352 29.5,26.352C29.5,26.352 29.5,26.352 29.5,26.351C29.5,26.351 29.5,26.351 29.5,26.351C29.5,26.351 29.5,26.351 29.5,26.351C29.5,26.351 29.5,26.351 29.5,26.351C29.5,26.351 29.5,26.351 29.5,26.351C29.5,26.351 29.5,26.351 29.5,26.351C29.5,26.351 29.5,26.351 29.5,26.351C29.5,26.351 29.5,26.351 29.5,26.351C29.5,26.351 29.5,26.351 29.5,26.351C29.5,26.351 29.5,26.351 29.5,26.351C29.5,26.351 29.5,26.351 29.5,26.351C29.5,26.351 29.5,26.351 29.5,26.351C29.5,26.351 29.5,26.351 29.5,26.351C29.5,26.35 29.5,26.35 29.5,26.35C29.5,26.35 29.5,26.35 29.5,26.35C29.5,26.35 29.5,26.35 29.5,26.35C29.5,26.35 29.5,26.35 29.5,26.35C29.5,26.35 29.5,26.35 29.5,26.35C29.5,26.35 29.5,26.35 29.5,26.35C29.5,26.35 29.5,26.35 29.5,26.35C29.5,26.35 29.5,26.35 29.5,26.35C29.5,26.35 29.5,26.35 29.5,26.35C29.5,26.35 29.5,26.35 29.5,26.35C29.5,26.35 29.5,26.35 29.5,26.35C29.5,26.35 29.5,26.35 29.5,26.35C29.5,26.35 29.5,26.35 29.5,26.349C29.5,26.349 29.5,26.349 29.5,26.349C29.5,26.349 29.5,26.349 29.5,26.349C29.5,26.349 29.5,26.349 29.5,26.349C29.5,26.349 29.5,26.349 29.5,26.349C29.5,26.349 29.5,26.349 29.5,26.349C29.5,26.349 29.5,26.349 29.5,26.349C29.5,26.349 29.5,26.349 29.5,26.349C29.5,26.349 29.5,26.349 29.5,26.349C29.5,26.349 29.5,26.349 29.5,26.349C29.5,26.349 29.5,26.349 29.5,26.349C29.5,26.349 29.5,26.349 29.5,26.349C29.5,26.349 29.5,26.349 29.5,26.349C29.5,26.349 29.5,26.349 29.5,26.348C29.5,26.348 29.5,26.348 29.5,26.348C29.5,26.348 29.5,26.348 29.5,26.348C29.5,26.348 29.5,26.348 29.5,26.348C29.5,26.348 29.5,26.348 29.5,26.348C29.5,26.348 29.5,26.348 29.5,26.348C29.5,26.348 29.5,26.348 29.5,26.348C29.5,26.348 29.5,26.348 29.5,26.348C29.5,26.348 29.5,26.348 29.5,26.348C29.5,26.348 29.5,26.348 29.5,26.348C29.5,26.348 29.5,26.348 29.5,26.348C29.5,26.348 29.5,26.348 29.5,26.348C29.5,26.348 29.5,26.348 29.5,26.348C29.5,26.348 29.5,26.348 29.5,26.348C29.5,26.348 29.5,26.347 29.5,26.347C29.5,26.347 29.5,26.347 29.5,26.347C29.5,26.347 29.5,26.347 29.5,26.347C29.5,26.347 29.5,26.347 29.5,26.347C29.5,26.347 29.5,26.347 29.5,26.347C29.5,26.347 29.5,26.347 29.5,26.347C29.5,26.347 29.5,26.347 29.5,26.347C29.5,26.347 29.5,26.347 29.5,26.347C29.5,26.347 29.5,26.347 29.5,26.347C29.5,26.347 29.5,26.347 29.5,26.347C29.5,26.347 29.5,26.347 29.5,26.347C29.5,26.347 29.5,26.347 29.5,26.347C29.5,26.347 29.5,26.347 29.5,26.347C29.5,26.347 29.5,26.347 29.5,26.347C29.5,26.347 29.5,26.347 29.5,26.346C29.5,26.346 29.5,26.346 29.5,26.346C29.5,26.346 29.5,26.346 29.5,26.346C29.5,26.346 29.5,26.346 29.5,26.346C29.5,26.346 29.5,26.346 29.5,26.346C29.5,26.346 29.5,26.346 29.5,26.346C29.5,26.346 29.5,26.346 29.5,26.346C29.5,26.346 29.5,26.346 29.5,26.346C29.5,26.346 29.5,26.346 29.5,26.346C29.5,26.346 29.5,26.346 29.5,26.346C29.5,26.346 29.5,26.346 29.5,26.346C29.5,26.346 29.5,26.346 29.5,26.346C29.5,26.346 29.5,26.346 29.5,26.346C29.5,26.346 29.5,26.346 29.5,26.346C29.5,26.346 29.5,26.346 29.5,26.346C29.5,26.346 29.5,26.346 29.5,26.345C29.5,26.345 29.5,26.345 29.5,26.345C29.5,26.345 29.5,26.345 29.5,26.345C29.5,26.345 29.5,26.345 29.5,26.345C29.5,26.345 29.5,26.345 29.5,26.345C29.5,26.345 29.5,26.345 29.5,26.345C29.5,26.345 29.5,26.345 29.5,26.345C29.5,26.345 29.5,26.345 29.5,26.345C29.5,26.345 29.5,26.345 29.5,26.345C29.5,26.345 29.5,26.345 29.5,26.345C29.5,26.345 29.5,26.345 29.5,26.345C29.5,26.345 29.5,26.345 29.5,26.345C29.5,26.345 29.5,26.345 29.5,26.345C29.5,26.345 29.5,26.345 29.5,26.345C29.5,26.345 29.5,26.345 29.5,26.345C29.5,26.345 29.5,26.345 29.5,26.345C29.5,26.345 29.5,26.344 29.5,26.344C29.5,26.344 29.5,26.344 29.5,26.344C29.5,26.344 29.5,26.344 29.5,26.344C29.5,26.344 29.5,26.344 29.5,26.344C29.5,26.344 29.5,26.344 29.5,26.344C29.5,26.344 29.5,26.344 29.5,26.344C29.5,26.344 29.5,26.344 29.5,26.344C29.5,26.344 29.5,26.344 29.5,26.344C29.5,26.344 29.5,26.344 29.5,26.344C29.5,26.344 29.5,26.344 29.5,26.344C29.5,26.344 29.5,26.344 29.5,26.344C29.5,26.344 29.5,26.344 29.5,26.344C29.5,26.344 29.5,26.344 29.5,26.344C29.5,26.344 29.5,26.344 29.5,26.344C29.5,26.344 29.5,26.344 29.5,26.344C29.5,26.344 29.5,26.344 29.5,26.344C29.5,26.344 29.5,26.343 29.5,26.343C29.5,26.343 29.5,26.343 29.5,26.343C29.5,26.343 29.5,26.343 29.5,26.343C29.5,26.343 29.5,26.343 29.5,26.343C29.5,26.343 29.5,26.343 29.5,26.343C29.5,26.343 29.5,26.343 29.5,26.343C29.5,26.343 29.5,26.343 29.5,26.343C29.5,26.343 29.5,26.343 29.5,26.343C29.5,26.343 29.5,26.343 29.5,26.343C29.5,26.343 29.5,26.343 29.5,26.343C29.5,26.343 29.5,26.343 29.5,26.343C29.5,26.343 29.5,26.343 29.5,26.343C29.5,26.343 29.5,26.343 29.5,26.343C29.5,26.343 29.5,26.343 29.5,26.343C29.5,26.343 29.5,26.343 29.5,26.343C29.5,26.343 29.5,26.343 29.5,26.343C29.5,26.343 29.5,26.343 29.5,26.342C29.5,26.342 29.5,26.342 29.5,26.342C29.5,26.342 29.5,26.342 29.5,26.342C29.5,26.342 29.5,26.342 29.5,26.342C29.5,26.342 29.5,26.342 29.5,26.342C29.5,26.342 29.5,26.342 29.5,26.342C29.5,26.342 29.5,26.342 29.5,26.342C29.5,26.342 29.5,26.342 29.5,26.342C29.5,26.342 29.5,26.342 29.5,26.342C29.5,26.342 29.5,26.342 29.5,26.342C29.5,26.342 29.5,26.342 29.5,26.342C29.5,26.342 29.5,26.342 29.5,26.342C29.5,26.342 29.5,26.342 29.5,26.342C29.5,26.342 29.5,26.342 29.5,26.342C29.5,26.342 29.5,26.342 29.5,26.342C29.5,26.342 29.5,26.342 29.5,26.342C29.5,26.342 29.5,26.342 29.5,26.342C29.5,26.342 29.5,26.342 29.5,26.341C29.5,26.341 29.5,26.341 29.5,26.341C29.5,26.341 29.5,26.341 29.5,26.341C29.5,26.341 29.5,26.341 29.5,26.341C29.5,26.341 29.5,26.341 29.5,26.341C29.5,26.341 29.5,26.341 29.5,26.341C29.5,26.341 29.5,26.341 29.5,26.341C29.5,26.341 29.5,26.341 29.5,26.341C29.5,26.341 29.5,26.341 29.5,26.341C29.5,26.341 29.5,26.341 29.5,26.341C29.5,26.341 29.5,26.341 29.5,26.341C29.5,26.341 29.5,26.341 29.5,26.341C29.5,26.341 29.5,26.341 29.5,26.341C29.5,26.341 29.5,26.341 29.5,26.341C29.5,26.341 29.5,26.341 29.5,26.341C29.5,26.341 29.5,26.341 29.5,26.341C29.5,26.341 29.5,26.341 29.5,26.341C29.5,26.341 29.5,26.341 29.5,26.34C29.5,26.34 29.5,26.34 29.5,26.34C29.5,26.34 29.5,26.34 29.5,26.34C29.5,26.34 29.5,26.34 29.5,26.34C29.5,26.34 29.5,26.34 29.5,26.34C29.5,26.34 29.5,26.34 29.5,26.34C29.5,26.34 29.5,26.34 29.5,26.34C29.5,26.34 29.5,26.34 29.5,26.34C29.5,26.34 29.5,26.34 29.5,26.34C29.5,26.34 29.5,26.34 29.5,26.34C29.5,26.34 29.5,26.34 29.5,26.34C29.5,26.34 29.5,26.34 29.5,26.34C29.5,26.34 29.5,26.34 29.5,26.34C29.5,26.34 29.5,26.34 29.5,26.34C29.5,26.34 29.5,26.34 29.5,26.34C29.5,26.34 29.5,26.34 29.5,26.34C29.5,26.34 29.5,26.34 29.5,26.34C29.5,26.34 29.5,26.34 29.5,26.339C29.5,26.339 29.5,26.339 29.5,26.339C29.5,26.339 29.5,26.339 29.5,26.339C29.5,26.339 29.5,26.339 29.5,26.339C29.5,26.339 29.5,26.339 29.5,26.339C29.5,26.339 29.5,26.339 29.5,26.339C29.5,26.339 29.5,26.339 29.5,26.339C29.5,26.339 29.5,26.339 29.5,26.339C29.5,26.339 29.5,26.339 29.5,26.339C29.5,26.339 29.5,26.339 29.5,26.339C29.5,26.339 29.5,26.339 29.5,26.339C29.5,26.339 29.5,26.339 29.5,26.339C29.5,26.339 29.5,26.339 29.5,26.339C29.5,26.339 29.5,26.339 29.5,26.339C29.5,26.339 29.5,26.339 29.5,26.339C29.5,26.339 29.5,26.339 29.5,26.339C29.5,26.339 29.5,26.339 29.5,26.339C29.5,26.339 29.5,26.339 29.5,26.338C29.5,26.338 29.5,26.338 29.5,26.338C29.5,26.338 29.5,26.338 29.5,26.338C29.5,26.338 29.5,26.338 29.5,26.338C29.5,26.338 29.5,26.338 29.5,26.338C29.5,26.338 29.5,26.338 29.5,26.338C29.5,26.338 29.5,26.338 29.5,26.338C29.5,26.338 29.5,26.338 29.5,26.338C29.5,26.338 29.5,26.338 29.5,26.338C29.5,26.338 29.5,26.338 29.5,26.338C29.5,26.338 29.5,26.338 29.5,26.338C29.5,26.338 29.5,26.338 29.5,26.338C29.5,26.338 29.5,26.338 29.5,26.338C29.5,26.338 29.5,26.338 29.5,26.338C29.5,26.338 29.5,26.338 29.5,26.338C29.5,26.338 29.5,26.338 29.5,26.338C29.5,26.338 29.5,26.338 29.5,26.338C29.5,26.338 29.5,26.337 29.5,26.337C29.5,26.337 29.5,26.337 29.5,26.337C29.5,26.337 29.5,26.337 29.5,26.337C29.5,26.337 29.5,26.337 29.5,26.337C29.5,26.337 29.5,26.337 29.5,26.337C29.5,26.337 29.5,26.337 29.5,26.337C29.5,26.337 29.5,26.337 29.5,26.337C29.5,26.337 29.5,26.337 29.5,26.337C29.5,26.337 29.5,26.337 29.5,26.337C29.5,26.337 29.5,26.337 29.5,26.337C29.5,26.337 29.5,26.337 29.5,26.337C29.5,26.337 29.5,26.337 29.5,26.337C29.5,26.337 29.5,26.337 29.5,26.337C29.5,26.337 29.5,26.337 29.5,26.337C29.5,26.337 29.5,26.337 29.5,26.337C29.5,26.337 29.5,26.337 29.5,26.337C29.5,26.337 29.5,26.337 29.5,26.336C29.5,26.336 29.5,26.336 29.5,26.336C29.5,26.336 29.5,26.336 29.5,26.336C29.5,26.336 29.5,26.336 29.5,26.336C29.5,26.336 29.5,26.336 29.5,26.336C29.5,26.336 29.5,26.336 29.5,26.336C29.5,26.336 29.5,26.336 29.5,26.336C29.5,26.336 29.5,26.336 29.5,26.336C29.5,26.336 29.5,26.336 29.5,26.336C29.5,26.336 29.5,26.336 29.5,26.336C29.5,26.336 29.5,26.336 29.5,26.336C29.5,26.336 29.5,26.336 29.5,26.336C29.5,26.336 29.5,26.336 29.5,26.336C29.5,26.336 29.5,26.336 29.5,26.336C29.5,26.336 29.5,26.336 29.5,26.336C29.5,26.336 29.5,26.336 29.5,26.336C29.5,26.336 29.5,26.336 29.5,26.335C29.5,26.335 29.5,26.335 29.5,26.335C29.5,26.335 29.5,26.335 29.5,26.335C29.5,26.335 29.5,26.335 29.5,26.335C29.5,26.335 29.5,26.335 29.5,26.335C29.5,26.335 29.5,26.335 29.5,26.335C29.5,26.335 29.5,26.335 29.5,26.335C29.5,26.335 29.5,26.335 29.5,26.335C29.5,26.335 29.5,26.335 29.5,26.335C29.5,26.335 29.5,26.335 29.5,26.335C29.5,26.335 29.5,26.335 29.5,26.335C29.5,26.335 29.5,26.335 29.5,26.335C29.5,26.335 29.5,26.335 29.5,26.335C29.5,26.335 29.5,26.335 29.5,26.335C29.5,26.335 29.5,26.335 29.5,26.335C29.5,26.335 29.5,26.335 29.5,26.335C29.5,26.334 29.5,26.334 29.5,26.334C29.5,26.334 29.5,26.334 29.5,26.334C29.5,26.334 29.5,26.334 29.5,26.334C29.5,26.334 29.5,26.334 29.5,26.334C29.5,26.334 29.5,26.334 29.5,26.334C29.5,26.334 29.5,26.334 29.5,26.334C29.5,26.334 29.5,26.334 29.5,26.334C29.5,26.334 29.5,26.334 29.5,26.334C29.5,26.334 29.5,26.334 29.5,26.334C29.5,26.334 29.5,26.334 29.5,26.334C29.5,26.334 29.5,26.334 29.5,26.334C29.5,26.334 29.5,26.334 29.5,26.334C29.5,26.334 29.5,26.334 29.5,26.334C29.5,26.334 29.5,26.334 29.5,26.334C29.5,26.334 29.5,26.334 29.5,26.334C29.5,26.333 29.5,26.333 29.5,26.333C29.5,26.333 29.5,26.333 29.5,26.333C29.5,26.333 29.5,26.333 29.5,26.333C29.5,26.333 29.5,26.333 29.5,26.333C29.5,26.333 29.5,26.333 29.5,26.333C29.5,26.333 29.5,26.333 29.5,26.333C29.5,26.333 29.5,26.333 29.5,26.333C29.5,26.333 29.5,26.333 29.5,26.333C29.5,26.333 29.5,26.333 29.5,26.333C29.5,26.333 29.5,26.333 29.5,26.333C29.5,26.333 29.5,26.333 29.5,26.333C29.5,26.333 29.5,26.333 29.5,26.333C29.5,26.333 29.5,26.333 29.5,26.333C29.5,26.333 29.5,26.333 29.5,26.333C29.5,26.333 29.5,26.332 29.5,26.332C29.5,26.332 29.5,26.332 29.5,26.332C29.5,26.332 29.5,26.332 29.5,26.332C29.5,26.332 29.5,26.332 29.5,26.332C29.5,26.332 29.5,26.332 29.5,26.332C29.5,26.332 29.5,26.332 29.5,26.332C29.5,26.332 29.5,26.332 29.5,26.332C29.5,26.332 29.5,26.332 29.5,26.332C29.5,26.332 29.5,26.332 29.5,26.332C29.5,26.332 29.5,26.332 29.5,26.332C29.5,26.332 29.5,26.332 29.5,26.332C29.5,26.332 29.5,26.332 29.5,26.332C29.5,26.332 29.5,26.332 29.5,26.332C29.5,26.332 29.5,26.332 29.5,26.332C29.5,26.331 29.5,26.331 29.5,26.331C29.5,26.331 29.5,26.331 29.5,26.331C29.5,26.331 29.5,26.331 29.5,26.331C29.5,26.331 29.5,26.331 29.5,26.331C29.5,26.331 29.5,26.331 29.5,26.331C29.5,26.331 29.5,26.331 29.5,26.331C29.5,26.331 29.5,26.331 29.5,26.331C29.5,26.331 29.5,26.331 29.5,26.331C29.5,26.331 29.5,26.331 29.5,26.331C29.5,26.331 29.5,26.331 29.5,26.331C29.5,26.331 29.5,26.331 29.5,26.331C29.5,26.331 29.5,26.331 29.5,26.331C29.5,26.331 29.5,26.331 29.5,26.331C29.5,26.33 29.5,26.33 29.5,26.33C29.5,26.33 29.5,26.33 29.5,26.33C29.5,26.33 29.5,26.33 29.5,26.33C29.5,26.33 29.5,26.33 29.5,26.33C29.5,26.33 29.5,26.33 29.5,26.33C29.5,26.33 29.5,26.33 29.5,26.33C29.5,26.33 29.5,26.33 29.5,26.33C29.5,26.33 29.5,26.33 29.5,26.33C29.5,26.33 29.5,26.33 29.5,26.33C29.5,26.33 29.5,26.33 29.5,26.33C29.5,26.33 29.5,26.33 29.5,26.33C29.5,26.33 29.5,26.33 29.5,26.33C29.5,26.33 29.5,26.33 29.5,26.329C29.5,26.329 29.5,26.329 29.5,26.329C29.5,26.329 29.5,26.329 29.5,26.329C29.5,26.329 29.5,26.329 29.5,26.329C29.5,26.329 29.5,26.329 29.5,26.329C29.5,26.329 29.5,26.329 29.5,26.329C29.5,26.329 29.5,26.329 29.5,26.329C29.5,26.329 29.5,26.329 29.5,26.329C29.5,26.329 29.5,26.329 29.5,26.329C29.5,26.329 29.5,26.329 29.5,26.329C29.5,26.329 29.5,26.329 29.5,26.329C29.5,26.329 29.5,26.329 29.5,26.329C29.5,26.329 29.5,26.329 29.5,26.328C29.5,26.328 29.5,26.328 29.5,26.328C29.5,26.328 29.5,26.328 29.5,26.328C29.5,26.328 29.5,26.328 29.5,26.328C29.5,26.328 29.5,26.328 29.5,26.328C29.5,26.328 29.5,26.328 29.5,26.328C29.5,26.328 29.5,26.328 29.5,26.328C29.5,26.328 29.5,26.328 29.5,26.328C29.5,26.328 29.5,26.328 29.5,26.328C29.5,26.328 29.5,26.328 29.5,26.328C29.5,26.328 29.5,26.328 29.5,26.328C29.5,26.328 29.5,26.328 29.5,26.328C29.5,26.327 29.5,26.327 29.5,26.327C29.5,26.327 29.5,26.327 29.5,26.327C29.5,26.327 29.5,26.327 29.5,26.327C29.5,26.327 29.5,26.327 29.5,26.327C29.5,26.327 29.5,26.327 29.5,26.327C29.5,26.327 29.5,26.327 29.5,26.327C29.5,26.327 29.5,26.327 29.5,26.327C29.5,26.327 29.5,26.327 29.5,26.327C29.5,26.327 29.5,26.327 29.5,26.327C29.5,26.327 29.5,26.327 29.5,26.327C29.5,26.327 29.5,26.327 29.5,26.327C29.5,26.326 29.5,26.326 29.5,26.326C29.5,26.326 29.5,26.326 29.5,26.326C29.5,26.326 29.5,26.326 29.5,26.326C29.5,26.326 29.5,26.326 29.5,26.326C29.5,26.326 29.5,26.326 29.5,26.326C29.5,26.326 29.5,26.326 29.5,26.326C29.5,26.326 29.5,26.326 29.5,26.326C29.5,26.326 29.5,26.326 29.5,26.326C29.5,26.326 29.5,26.326 29.5,26.326C29.5,26.326 29.5,26.326 29.5,26.326C29.5,26.326 29.5,26.326 29.5,26.325C29.5,26.325 29.5,26.325 29.5,26.325C29.5,26.325 29.5,26.325 29.5,26.325C29.5,26.325 29.5,26.325 29.5,26.325C29.5,26.325 29.5,26.325 29.5,26.325C29.5,26.325 29.5,26.325 29.5,26.325C29.5,26.325 29.5,26.325 29.5,26.325C29.5,26.325 29.5,26.325 29.5,26.325C29.5,26.325 29.5,26.325 29.5,26.325C29.5,26.325 29.5,26.325 29.5,26.325C29.5,26.325 29.5,26.325 29.5,26.325C29.5,26.324 29.5,26.324 29.5,26.324C29.5,26.324 29.5,26.324 29.5,26.324C29.5,26.324 29.5,26.324 29.5,26.324C29.5,26.324 29.5,26.324 29.5,26.324C29.5,26.324 29.5,26.324 29.5,26.324C29.5,26.324 29.5,26.324 29.5,26.324C29.5,26.324 29.5,26.324 29.5,26.324C29.5,26.324 29.5,26.324 29.5,26.324C29.5,26.324 29.5,26.324 29.5,26.324C29.5,26.324 29.5,26.324 29.5,26.323C29.5,26.323 29.5,26.323 29.5,26.323C29.5,26.323 29.5,26.323 29.5,26.323C29.5,26.323 29.5,26.323 29.5,26.323C29.5,26.323 29.5,26.323 29.5,26.323C29.5,26.323 29.5,26.323 29.5,26.323C29.5,26.323 29.5,26.323 29.5,26.323C29.5,26.323 29.5,26.323 29.5,26.323C29.5,26.323 29.5,26.323 29.5,26.323C29.5,26.323 29.5,26.323 29.5,26.323C29.5,26.323 29.5,26.322 29.5,26.322C29.5,26.322 29.5,26.322 29.5,26.322C29.5,26.322 29.5,26.322 29.5,26.322C29.5,26.322 29.5,26.322 29.5,26.322C29.5,26.322 29.5,26.322 29.5,26.322C29.5,26.322 29.5,26.322 29.5,26.322C29.5,26.322 29.5,26.322 29.5,26.322C29.5,26.322 29.5,26.322 29.5,26.322C29.5,26.322 29.5,26.322 29.5,26.322C29.5,26.322 29.5,26.321 29.5,26.321C29.5,26.321 29.5,26.321 29.5,26.321C29.5,26.321 29.5,26.321 29.5,26.321C29.5,26.321 29.5,26.321 29.5,26.321C29.5,26.321 29.5,26.321 29.5,26.321C29.5,26.321 29.5,26.321 29.5,26.321C29.5,26.321 29.5,26.321 29.5,26.321C29.5,26.321 29.5,26.321 29.5,26.321C29.5,26.321 29.5,26.321 29.5,26.321C29.5,26.32 29.5,26.32 29.5,26.32C29.5,26.32 29.5,26.32 29.5,26.32C29.5,26.32 29.5,26.32 29.5,26.32C29.5,26.32 29.5,26.32 29.5,26.32L26.5,26.32ZM26.5,26.36C26.5,26.926 26.496,27.342 26.448,27.697C26.402,28.039 26.328,28.206 26.264,28.297C26.195,28.396 25.847,28.82 24,28.82L24,31.82C26.133,31.82 27.785,31.354 28.721,30.018C29.16,29.391 29.339,28.705 29.421,28.1C29.501,27.508 29.5,26.884 29.5,26.36L26.5,26.36ZM24,28.82C22.161,28.82 21.809,28.4 21.739,28.3C21.675,28.211 21.601,28.046 21.554,27.709C21.505,27.357 21.5,26.943 21.5,26.38L18.5,26.38C18.5,26.907 18.5,27.53 18.582,28.122C18.667,28.727 18.85,29.412 19.291,30.035C20.231,31.36 21.879,31.82 24,31.82L24,28.82ZM21.5,26.38L21.5,24.32L18.5,24.32L18.5,26.38L21.5,26.38ZM21.5,24.32C21.5,24.066 21.5,23.863 21.504,23.691C21.507,23.516 21.514,23.404 21.522,23.329C21.531,23.252 21.536,23.262 21.517,23.316C21.493,23.383 21.434,23.508 21.311,23.631C21.187,23.754 21.063,23.813 20.996,23.837C20.942,23.856 20.932,23.851 21.009,23.842C21.084,23.834 21.196,23.827 21.37,23.824C21.543,23.82 21.745,23.82 22,23.82L22,20.82C21.537,20.82 21.062,20.818 20.678,20.86C20.305,20.902 19.686,21.013 19.189,21.509C18.693,22.006 18.582,22.625 18.54,22.998C18.498,23.382 18.5,23.857 18.5,24.32L21.5,24.32ZM22,23.82L26,23.82L26,20.82L22,20.82L22,23.82ZM26,23.82C26.255,23.82 26.457,23.82 26.63,23.824C26.804,23.827 26.916,23.834 26.991,23.842C27.068,23.851 27.058,23.856 27.004,23.837C26.937,23.813 26.813,23.754 26.689,23.631C26.566,23.508 26.507,23.383 26.483,23.316C26.464,23.262 26.469,23.252 26.478,23.329C26.486,23.404 26.493,23.516 26.496,23.691C26.5,23.863 26.5,24.066 26.5,24.32L29.5,24.32C29.5,23.857 29.502,23.382 29.46,22.998C29.418,22.625 29.307,22.006 28.811,21.509C28.314,21.013 27.695,20.902 27.322,20.86C26.938,20.818 26.463,20.82 26,20.82L26,23.82Z" fill="#16151C"/>
</svg>
