<svg width="48" height="48" viewBox="0 0 48 48" fill="none" xmlns="http://www.w3.org/2000/svg" xmlns:xlink="http://www.w3.org/1999/xlink">
<circle cx="12" cy="8" r="4" stroke="#16151C" stroke-width="1.5" stroke-miterlimit="3.999327"/>
<path d="M16.5,16C16.5,16.447 16.228,17.035 15.411,17.58C14.603,18.118 13.402,18.5 12,18.5L12,21.5C13.912,21.5 15.71,20.986 17.075,20.077C18.429,19.174 19.5,17.762 19.5,16L16.5,16ZM12,18.5C10.598,18.5 9.397,18.118 8.589,17.58C7.772,17.035 7.5,16.447 7.5,16L4.5,16C4.5,17.762 5.571,19.174 6.925,20.077C8.29,20.986 10.088,21.5 12,21.5L12,18.5ZM7.5,16C7.5,15.553 7.772,14.965 8.589,14.42C9.397,13.882 10.598,13.5 12,13.5L12,10.5C10.088,10.5 8.29,11.014 6.925,11.923C5.571,12.826 4.5,14.238 4.5,16L7.5,16ZM12,13.5C13.402,13.5 14.603,13.882 15.411,14.42C16.228,14.965 16.5,15.553 16.5,16L19.5,16C19.5,14.238 18.429,12.826 17.075,11.923C15.71,11.014 13.912,10.5 12,10.5L12,13.5Z" fill="#16151C"/>
<circle cx="36" cy="32" r="4" stroke="#16151C" stroke-width="1.5" stroke-miterlimit="3.999327"/>
<path d="M42.5,24C42.5,24.828 43.172,25.5 44,25.5C44.828,25.5 45.5,24.828 45.5,24L42.5,24ZM24,45.5C24.828,45.5 25.5,44.828 25.5,44C25.5,43.172 24.828,42.5 24,42.5L24,45.5ZM5.5,24C5.5,23.172 4.828,22.5 4,22.5C3.172,22.5 2.5,23.172 2.5,24L5.5,24ZM24,2.5C23.172,2.5 22.5,3.172 22.5,4C22.5,4.828 23.172,5.5 24,5.5L24,2.5ZM24,42.5C13.783,42.5 5.5,34.217 5.5,24L2.5,24C2.5,35.874 12.126,45.5 24,45.5L24,42.5ZM24,5.5C34.217,5.5 42.5,13.783 42.5,24L45.5,24C45.5,12.126 35.874,2.5 24,2.5L24,5.5Z" fill="#16151C"/>
<path d="M40.5,40C40.5,40.447 40.228,41.035 39.411,41.58C38.603,42.118 37.402,42.5 36,42.5L36,45.5C37.912,45.5 39.71,44.986 41.075,44.077C42.429,43.174 43.5,41.762 43.5,40L40.5,40ZM36,42.5C34.598,42.5 33.397,42.118 32.589,41.58C31.772,41.035 31.5,40.447 31.5,40L28.5,40C28.5,41.762 29.571,43.174 30.925,44.077C32.29,44.986 34.088,45.5 36,45.5L36,42.5ZM31.5,40C31.5,39.553 31.772,38.965 32.589,38.42C33.397,37.882 34.598,37.5 36,37.5L36,34.5C34.088,34.5 32.29,35.014 30.925,35.923C29.571,36.826 28.5,38.238 28.5,40L31.5,40ZM36,37.5C37.402,37.5 38.603,37.882 39.411,38.42C40.228,38.965 40.5,39.553 40.5,40L43.5,40C43.5,38.238 42.429,36.826 41.075,35.923C39.71,35.014 37.912,34.5 36,34.5L36,37.5Z" fill="#16151C"/>
</svg>
