<svg width="10" height="12" viewBox="0 0 10 12" fill="none" xmlns="http://www.w3.org/2000/svg" xmlns:xlink="http://www.w3.org/1999/xlink">
<path d="M3.96,7.639C3.803,8.901 3.183,10.091 2.196,11.156C3.466,10.937 4.629,10.621 5.628,10.221C6.638,9.817 7.555,9.299 8.245,8.647C8.938,7.992 9.5,7.098 9.5,6C9.5,4.902 8.938,4.008 8.245,3.353C7.555,2.701 6.638,2.183 5.628,1.779C3.862,1.072 1.586,0.626 -0.891,0.523C0.931,1.512 2.337,2.742 3.164,4.122C3.656,4.253 4.108,4.402 4.514,4.564C5.314,4.884 5.861,5.228 6.184,5.533C6.5,5.833 6.5,5.991 6.5,6L6.5,6L6.5,6C6.5,6.009 6.5,6.167 6.184,6.467C5.861,6.772 5.314,7.116 4.514,7.436C4.338,7.506 4.153,7.574 3.96,7.639Z" clip-rule="evenodd" fill-rule="evenodd" fill="#16151C"/>
</svg>
