<svg width="10" height="12" viewBox="0 0 10 12" fill="none" xmlns="http://www.w3.org/2000/svg" xmlns:xlink="http://www.w3.org/1999/xlink">
<path d="M6.617,0.534C6.414,0.512 6.209,0.5 6,0.5C2.962,0.5 0.5,2.962 0.5,6C0.5,9.038 2.962,11.5 6,11.5C6.971,11.5 7.883,11.249 8.674,10.807C7.987,10.068 7.411,9.225 6.971,8.304C6.673,8.43 6.344,8.5 6,8.5C4.619,8.5 3.5,7.381 3.5,6C3.5,4.619 4.619,3.5 6,3.5C6.004,3.5 6.008,3.5 6.012,3.5C6.063,2.462 6.273,1.465 6.617,0.534Z" clip-rule="evenodd" fill-rule="evenodd" fill="#16151C"/>
</svg>
