<svg width="12" height="12" viewBox="0 0 12 12" fill="none" xmlns="http://www.w3.org/2000/svg" xmlns:xlink="http://www.w3.org/1999/xlink">
<path d="M10.891,0.523C8.414,0.626 6.138,1.072 4.372,1.779C3.362,2.183 2.445,2.701 1.755,3.353C1.062,4.008 0.5,4.902 0.5,6C0.5,7.098 1.062,7.992 1.755,8.647C2.445,9.299 3.362,9.817 4.372,10.221C5.371,10.621 6.534,10.937 7.804,11.156C6.817,10.091 6.197,8.901 6.04,7.639C5.847,7.574 5.662,7.506 5.486,7.436C4.686,7.116 4.139,6.772 3.817,6.467C3.5,6.167 3.5,6.009 3.5,6L3.5,6L3.5,6C3.5,5.991 3.5,5.833 3.817,5.533C4.139,5.228 4.686,4.884 5.486,4.564C5.892,4.402 6.344,4.253 6.836,4.122C7.663,2.742 9.069,1.512 10.891,0.523Z" clip-rule="evenodd" fill-rule="evenodd" fill="#16151C"/>
</svg>
