<svg width="44" height="44" viewBox="0 0 44 44" fill="none" xmlns="http://www.w3.org/2000/svg" xmlns:xlink="http://www.w3.org/1999/xlink">
<path d="M3.5,21C3.5,30.665 11.335,38.5 21,38.5C30.665,38.5 38.5,30.665 38.5,21C38.5,11.335 30.665,3.5 21,3.5C11.335,3.5 3.5,11.335 3.5,21ZM21,41.5C9.678,41.5 0.5,32.322 0.5,21C0.5,9.678 9.678,0.5 21,0.5C32.322,0.5 41.5,9.678 41.5,21C41.5,26.121 39.622,30.803 36.518,34.396L43.061,40.939C43.646,41.525 43.646,42.475 43.061,43.061C42.475,43.646 41.525,43.646 40.939,43.061L34.396,36.518C30.803,39.622 26.121,41.5 21,41.5Z" clip-rule="evenodd" fill-rule="evenodd" fill="#16151C"/>
</svg>
