<svg width="44" height="44" viewBox="0 0 44 44" fill="none" xmlns="http://www.w3.org/2000/svg" xmlns:xlink="http://www.w3.org/1999/xlink">
<path d="M6,3.5L14,3.5L14,0.5L6,0.5L6,3.5ZM16.5,6L16.5,14L19.5,14L19.5,6L16.5,6ZM14,16.5L6,16.5L6,19.5L14,19.5L14,16.5ZM3.5,14L3.5,6L0.5,6L0.5,14L3.5,14ZM6,16.5C4.619,16.5 3.5,15.381 3.5,14L0.5,14C0.5,17.038 2.962,19.5 6,19.5L6,16.5ZM16.5,14C16.5,15.381 15.381,16.5 14,16.5L14,19.5C17.038,19.5 19.5,17.038 19.5,14L16.5,14ZM14,3.5C15.381,3.5 16.5,4.619 16.5,6L19.5,6C19.5,2.962 17.038,0.5 14,0.5L14,3.5ZM6,0.5C2.962,0.5 0.5,2.962 0.5,6L3.5,6C3.5,4.619 4.619,3.5 6,3.5L6,0.5ZM40.5,10C40.5,13.59 37.59,16.5 34,16.5L34,19.5C39.247,19.5 43.5,15.247 43.5,10L40.5,10ZM34,16.5C30.41,16.5 27.5,13.59 27.5,10L24.5,10C24.5,15.247 28.753,19.5 34,19.5L34,16.5ZM27.5,10C27.5,6.41 30.41,3.5 34,3.5L34,0.5C28.753,0.5 24.5,4.753 24.5,10L27.5,10ZM34,3.5C37.59,3.5 40.5,6.41 40.5,10L43.5,10C43.5,4.753 39.247,0.5 34,0.5L34,3.5ZM16.5,34C16.5,37.59 13.59,40.5 10,40.5L10,43.5C15.247,43.5 19.5,39.247 19.5,34L16.5,34ZM10,40.5C6.41,40.5 3.5,37.59 3.5,34L0.5,34C0.5,39.247 4.753,43.5 10,43.5L10,40.5ZM3.5,34C3.5,30.41 6.41,27.5 10,27.5L10,24.5C4.753,24.5 0.5,28.753 0.5,34L3.5,34ZM10,27.5C13.59,27.5 16.5,30.41 16.5,34L19.5,34C19.5,28.753 15.247,24.5 10,24.5L10,27.5ZM30,27.5L38,27.5L38,24.5L30,24.5L30,27.5ZM40.5,30L40.5,38L43.5,38L43.5,30L40.5,30ZM38,40.5L30,40.5L30,43.5L38,43.5L38,40.5ZM27.5,38L27.5,30L24.5,30L24.5,38L27.5,38ZM30,40.5C28.619,40.5 27.5,39.381 27.5,38L24.5,38C24.5,41.038 26.962,43.5 30,43.5L30,40.5ZM40.5,38C40.5,39.381 39.381,40.5 38,40.5L38,43.5C41.038,43.5 43.5,41.038 43.5,38L40.5,38ZM38,27.5C39.381,27.5 40.5,28.619 40.5,30L43.5,30C43.5,26.962 41.038,24.5 38,24.5L38,27.5ZM30,24.5C26.962,24.5 24.5,26.962 24.5,30L27.5,30C27.5,28.619 28.619,27.5 30,27.5L30,24.5Z" fill="#16151C"/>
</svg>
