<svg width="36" height="26" viewBox="0 0 36 26" fill="none" xmlns="http://www.w3.org/2000/svg" xmlns:xlink="http://www.w3.org/1999/xlink">
<path d="M34.638,15.26C34.638,17.836 34.123,20.052 33.147,21.671C31.894,23.75 29.946,24.85 27.516,24.85C22.876,24.85 19.757,19.029 16.456,12.867C14.057,8.391 11.08,2.821 8.633,2.821C7.453,2.821 6.008,4.255 4.86,6.562C3.548,9.275 2.851,12.245 2.82,15.26C2.82,17.141 3.162,18.744 3.783,19.775C4.36,20.733 5.151,21.178 6.271,21.178C8.374,21.178 10.956,16.742 11.805,15.29C12.05,14.87 12.453,14.563 12.924,14.439C13.395,14.315 13.896,14.383 14.316,14.629C14.737,14.874 15.043,15.276 15.167,15.747C15.291,16.218 15.223,16.719 14.978,17.14C13.615,19.477 12.449,21.117 11.307,22.307C9.665,24.017 8.021,24.85 6.271,24.85C3.84,24.85 1.893,23.75 0.64,21.671C-0.336,20.052 -0.852,17.836 -0.852,15.26C-0.852,8.533 2.755,-0.85 8.633,-0.85C13.272,-0.85 16.391,4.971 19.693,11.132C22.094,15.608 25.073,21.178 27.516,21.178C28.635,21.178 29.426,20.733 30.003,19.775C30.624,18.744 30.967,17.141 30.967,15.26C30.936,12.246 30.239,9.275 28.928,6.562C27.78,4.255 26.335,2.821 25.154,2.821C24.279,2.821 23.225,3.586 22.019,5.09C21.715,5.47 21.272,5.714 20.788,5.767C20.304,5.821 19.819,5.68 19.439,5.376C19.058,5.072 18.815,4.629 18.761,4.145C18.707,3.661 18.848,3.176 19.153,2.795C21.118,0.343 23.081,-0.85 25.154,-0.85C27.854,-0.85 30.355,1.201 32.213,4.926C33.773,8.15 34.6,11.679 34.638,15.26Z" fill="#FFFFFF"/>
</svg>
