<svg width="44" height="44" viewBox="0 0 44 44" fill="none" xmlns="http://www.w3.org/2000/svg" xmlns:xlink="http://www.w3.org/1999/xlink">
<path d="M34,0.5L10,0.5L10,3.5L34,3.5L34,0.5ZM0.5,10L0.5,34L3.5,34L3.5,10L0.5,10ZM10,43.5L34,43.5L34,40.5L10,40.5L10,43.5ZM43.5,34L43.5,10L40.5,10L40.5,34L43.5,34ZM34,43.5C39.247,43.5 43.5,39.247 43.5,34L40.5,34C40.5,37.59 37.59,40.5 34,40.5L34,43.5ZM0.5,34C0.5,39.247 4.753,43.5 10,43.5L10,40.5C6.41,40.5 3.5,37.59 3.5,34L0.5,34ZM10,0.5C4.753,0.5 0.5,4.753 0.5,10L3.5,10C3.5,6.41 6.41,3.5 10,3.5L10,0.5ZM34,3.5C37.59,3.5 40.5,6.41 40.5,10L43.5,10C43.5,4.753 39.247,0.5 34,0.5L34,3.5Z" fill="#A2A1A8" fill-opacity="0.8"/>
</svg>
