<svg width="44" height="44" viewBox="0 0 44 44" fill="none" xmlns="http://www.w3.org/2000/svg" xmlns:xlink="http://www.w3.org/1999/xlink">
<path d="M23.5,2C23.5,1.172 22.828,0.5 22,0.5C21.172,0.5 20.5,1.172 20.5,2L23.5,2ZM20.5,4C20.5,4.828 21.172,5.5 22,5.5C22.828,5.5 23.5,4.828 23.5,4L20.5,4ZM23.5,40C23.5,39.172 22.828,38.5 22,38.5C21.172,38.5 20.5,39.172 20.5,40L23.5,40ZM20.5,42C20.5,42.828 21.172,43.5 22,43.5C22.828,43.5 23.5,42.828 23.5,42L20.5,42ZM37.203,8.919C37.789,8.333 37.789,7.383 37.203,6.797C36.617,6.211 35.667,6.211 35.081,6.797L37.203,8.919ZM33.667,8.211C33.081,8.797 33.081,9.747 33.667,10.333C34.253,10.919 35.203,10.919 35.789,10.333L33.667,8.211ZM10.333,35.789C10.919,35.203 10.919,34.253 10.333,33.667C9.747,33.081 8.797,33.081 8.211,33.667L10.333,35.789ZM6.797,35.081C6.211,35.667 6.211,36.617 6.797,37.203C7.383,37.789 8.333,37.789 8.919,37.203L6.797,35.081ZM42,23.5C42.828,23.5 43.5,22.828 43.5,22C43.5,21.172 42.828,20.5 42,20.5L42,23.5ZM40,20.5C39.172,20.5 38.5,21.172 38.5,22C38.5,22.828 39.172,23.5 40,23.5L40,20.5ZM4,23.5C4.828,23.5 5.5,22.828 5.5,22C5.5,21.172 4.828,20.5 4,20.5L4,23.5ZM2,20.5C1.172,20.5 0.5,21.172 0.5,22C0.5,22.828 1.172,23.5 2,23.5L2,20.5ZM35.081,37.203C35.667,37.789 36.617,37.789 37.203,37.203C37.789,36.617 37.789,35.667 37.203,35.081L35.081,37.203ZM35.789,33.667C35.203,33.081 34.253,33.081 33.667,33.667C33.081,34.253 33.081,35.203 33.667,35.789L35.789,33.667ZM8.211,10.333C8.797,10.919 9.747,10.919 10.333,10.333C10.919,9.747 10.919,8.797 10.333,8.211L8.211,10.333ZM8.919,6.797C8.333,6.211 7.383,6.211 6.797,6.797C6.211,7.383 6.211,8.333 6.797,8.919L8.919,6.797ZM32.5,22C32.5,27.799 27.799,32.5 22,32.5L22,35.5C29.456,35.5 35.5,29.456 35.5,22L32.5,22ZM22,32.5C16.201,32.5 11.5,27.799 11.5,22L8.5,22C8.5,29.456 14.544,35.5 22,35.5L22,32.5ZM11.5,22C11.5,16.201 16.201,11.5 22,11.5L22,8.5C14.544,8.5 8.5,14.544 8.5,22L11.5,22ZM22,11.5C27.799,11.5 32.5,16.201 32.5,22L35.5,22C35.5,14.544 29.456,8.5 22,8.5L22,11.5ZM20.5,2L20.5,4L23.5,4L23.5,2L20.5,2ZM20.5,40L20.5,42L23.5,42L23.5,40L20.5,40ZM35.081,6.797L33.667,8.211L35.789,10.333L37.203,8.919L35.081,6.797ZM8.211,33.667L6.797,35.081L8.919,37.203L10.333,35.789L8.211,33.667ZM42,20.5L40,20.5L40,23.5L42,23.5L42,20.5ZM4,20.5L2,20.5L2,23.5L4,23.5L4,20.5ZM37.203,35.081L35.789,33.667L33.667,35.789L35.081,37.203L37.203,35.081ZM10.333,8.211L8.919,6.797L6.797,8.919L8.211,10.333L10.333,8.211Z" fill="#FFFFFF"/>
</svg>
