<svg width="40" height="40" viewBox="0 0 40 40" fill="none" xmlns="http://www.w3.org/2000/svg" xmlns:xlink="http://www.w3.org/1999/xlink">
<path d="M37.488,27.441L36.209,26.658L36.209,26.658L37.488,27.441ZM35.579,30.559L36.858,31.342L36.858,31.342L35.579,30.559ZM2.512,12.559L1.233,11.775L1.233,11.775L2.512,12.559ZM4.421,9.441L5.7,10.224L5.7,10.224L4.421,9.441ZM9.637,8.123L10.354,6.806L10.354,6.806L9.637,8.123ZM3.91,17.477L3.193,18.794L3.193,18.794L3.91,17.477ZM30.363,31.877L29.646,33.194L29.646,33.194L30.363,31.877ZM36.09,22.523L35.373,23.841L35.373,23.841L36.09,22.523ZM4.421,30.559L3.142,31.342L3.142,31.342L4.421,30.559ZM2.512,27.441L3.791,26.658L3.791,26.658L2.512,27.441ZM35.579,9.441L36.858,8.658L36.858,8.658L35.579,9.441ZM37.488,12.559L36.209,13.342L36.209,13.342L37.488,12.559ZM36.09,17.477L36.807,18.794L36.807,18.794L36.09,17.477ZM30.363,8.123L31.08,9.441L31.08,9.441L30.363,8.123ZM3.91,22.523L4.627,23.841L4.627,23.841L3.91,22.523ZM9.637,31.877L8.92,30.559L8.92,30.559L9.637,31.877ZM30.16,8.234L29.443,6.917L29.443,6.917L30.16,8.234ZM9.84,8.234L9.123,9.551L9.123,9.551L9.84,8.234ZM30.16,31.766L30.877,30.449L30.877,30.449L30.16,31.766ZM9.84,31.766L10.557,33.084L10.557,33.084L9.84,31.766ZM18.091,3.5L21.909,3.5L21.909,0.5L18.091,0.5L18.091,3.5ZM21.909,36.5L18.091,36.5L18.091,39.5L21.909,39.5L21.909,36.5ZM18.091,36.5C16.726,36.5 15.773,35.478 15.773,34.4L12.773,34.4C12.773,37.299 15.238,39.5 18.091,39.5L18.091,36.5ZM24.227,34.4C24.227,35.478 23.274,36.5 21.909,36.5L21.909,39.5C24.762,39.5 27.227,37.299 27.227,34.4L24.227,34.4ZM21.909,3.5C23.274,3.5 24.227,4.522 24.227,5.6L27.227,5.6C27.227,2.701 24.762,0.5 21.909,0.5L21.909,3.5ZM18.091,0.5C15.238,0.5 12.773,2.701 12.773,5.6L15.773,5.6C15.773,4.522 16.726,3.5 18.091,3.5L18.091,0.5ZM36.209,26.658L34.3,29.776L36.858,31.342L38.767,28.224L36.209,26.658ZM3.791,13.342L5.7,10.224L3.142,8.658L1.233,11.775L3.791,13.342ZM5.7,10.224C6.318,9.216 7.761,8.81 8.92,9.441L10.354,6.806C7.861,5.449 4.634,6.222 3.142,8.658L5.7,10.224ZM4.627,16.159C3.515,15.554 3.209,14.294 3.791,13.342L1.233,11.775C-0.293,14.267 0.652,17.411 3.193,18.794L4.627,16.159ZM34.3,29.776C33.682,30.784 32.239,31.19 31.08,30.559L29.646,33.194C32.139,34.551 35.366,33.778 36.858,31.342L34.3,29.776ZM38.767,28.224C40.293,25.733 39.348,22.589 36.807,21.206L35.373,23.841C36.485,24.446 36.791,25.706 36.209,26.658L38.767,28.224ZM5.7,29.776L3.791,26.658L1.233,28.224L3.142,31.342L5.7,29.776ZM34.3,10.225L36.209,13.342L38.767,11.776L36.858,8.658L34.3,10.225ZM36.209,13.342C36.791,14.294 36.485,15.554 35.373,16.159L36.807,18.794C39.348,17.411 40.293,14.267 38.767,11.776L36.209,13.342ZM31.08,9.441C32.239,8.81 33.682,9.216 34.3,10.225L36.858,8.658C35.366,6.222 32.139,5.449 29.646,6.806L31.08,9.441ZM3.791,26.658C3.209,25.706 3.515,24.446 4.627,23.841L3.193,21.206C0.652,22.589 -0.293,25.733 1.233,28.224L3.791,26.658ZM3.142,31.342C4.633,33.778 7.861,34.551 10.354,33.194L8.92,30.559C7.761,31.19 6.318,30.784 5.7,29.776L3.142,31.342ZM30.877,9.551L31.08,9.441L29.646,6.806L29.443,6.917L30.877,9.551ZM8.92,9.441L9.123,9.551L10.557,6.916L10.354,6.806L8.92,9.441ZM31.08,30.559L30.877,30.449L29.443,33.083L29.646,33.194L31.08,30.559ZM9.123,30.449L8.92,30.559L10.354,33.194L10.557,33.084L9.123,30.449ZM3.193,18.794C4.148,19.314 4.148,20.686 3.193,21.206L4.627,23.841C7.67,22.184 7.67,17.816 4.627,16.159L3.193,18.794ZM10.557,33.084C11.556,32.54 12.773,33.263 12.773,34.4L15.773,34.4C15.773,30.987 12.121,28.817 9.123,30.449L10.557,33.084ZM27.227,34.4C27.227,33.263 28.444,32.54 29.443,33.083L30.877,30.449C27.879,28.817 24.227,30.987 24.227,34.4L27.227,34.4ZM36.807,21.206C35.852,20.686 35.852,19.314 36.807,18.794L35.373,16.159C32.33,17.816 32.33,22.184 35.373,23.841L36.807,21.206ZM9.123,9.551C12.121,11.183 15.773,9.013 15.773,5.6L12.773,5.6C12.773,6.737 11.556,7.46 10.557,6.916L9.123,9.551ZM29.443,6.917C28.444,7.46 27.227,6.737 27.227,5.6L24.227,5.6C24.227,9.013 27.879,11.183 30.877,9.551L29.443,6.917ZM24.5,20C24.5,22.485 22.485,24.5 20,24.5L20,27.5C24.142,27.5 27.5,24.142 27.5,20L24.5,20ZM20,24.5C17.515,24.5 15.5,22.485 15.5,20L12.5,20C12.5,24.142 15.858,27.5 20,27.5L20,24.5ZM15.5,20C15.5,17.515 17.515,15.5 20,15.5L20,12.5C15.858,12.5 12.5,15.858 12.5,20L15.5,20ZM20,15.5C22.485,15.5 24.5,17.515 24.5,20L27.5,20C27.5,15.858 24.142,12.5 20,12.5L20,15.5Z" fill="#16151C"/>
</svg>
