<svg width="40" height="40" viewBox="0 0 40 40" fill="none" xmlns="http://www.w3.org/2000/svg" xmlns:xlink="http://www.w3.org/1999/xlink">
<path d="M24.949,2L25.384,0.564C24.855,0.404 24.28,0.548 23.889,0.939C23.497,1.331 23.353,1.906 23.514,2.435L24.949,2ZM2,24.949L2.435,23.514C1.906,23.353 1.331,23.497 0.939,23.889C0.548,24.28 0.404,24.855 0.564,25.384L2,24.949ZM24.237,7.343C24.237,16.674 16.674,24.237 7.343,24.237L7.343,27.237C18.33,27.237 27.237,18.33 27.237,7.343L24.237,7.343ZM36.5,19.606C36.5,28.936 28.936,36.5 19.606,36.5L19.606,39.5C30.593,39.5 39.5,30.593 39.5,19.606L36.5,19.606ZM24.514,3.436C31.452,5.538 36.5,11.985 36.5,19.606L39.5,19.606C39.5,10.626 33.552,3.04 25.384,0.564L24.514,3.436ZM23.514,2.435C23.984,3.987 24.237,5.634 24.237,7.343L27.237,7.343C27.237,5.336 26.94,3.395 26.385,1.565L23.514,2.435ZM19.606,36.5C11.985,36.5 5.538,31.452 3.436,24.514L0.564,25.384C3.04,33.552 10.626,39.5 19.606,39.5L19.606,36.5ZM7.343,24.237C5.634,24.237 3.987,23.984 2.435,23.514L1.565,26.385C3.395,26.94 5.336,27.237 7.343,27.237L7.343,24.237Z" fill="#16151C"/>
</svg>
